G04 #@! TF.GenerationSoftware,KiCad,Pcbnew,8.0.8*
G04 #@! TF.CreationDate,2025-03-09T16:53:55+01:00*
G04 #@! TF.ProjectId,PowerVan,506f7765-7256-4616-9e2e-6b696361645f,rev?*
G04 #@! TF.SameCoordinates,Original*
G04 #@! TF.FileFunction,Legend,Bot*
G04 #@! TF.FilePolarity,Positive*
%FSLAX46Y46*%
G04 Gerber Fmt 4.6, Leading zero omitted, Abs format (unit mm)*
G04 Created by KiCad (PCBNEW 8.0.8) date 2025-03-09 16:53:55*
%MOMM*%
%LPD*%
G01*
G04 APERTURE LIST*
%ADD10C,0.150000*%
%ADD11C,0.300000*%
%ADD12C,0.200000*%
%ADD13C,0.500000*%
%ADD14C,0.600000*%
%ADD15C,0.800000*%
%ADD16C,0.120000*%
%ADD17C,0.000000*%
G04 APERTURE END LIST*
D10*
X377825500Y-215106500D02*
X377825500Y-215900250D01*
D11*
X377825500Y-233362750D02*
X377826255Y-233302756D01*
X378151148Y-232160728D02*
X378182085Y-232109321D01*
X379039026Y-231287473D02*
X379091682Y-231258712D01*
X380246289Y-230981828D02*
X380306262Y-230983580D01*
X381442737Y-231327391D02*
X381493624Y-231359176D01*
X382301130Y-232229646D02*
X382329012Y-232282772D01*
X382586686Y-233441817D02*
X382583939Y-233501753D01*
X382221305Y-234632363D02*
X382188679Y-234682715D01*
X381304921Y-235475655D02*
X381251339Y-235502652D01*
X380088175Y-235741045D02*
X380028293Y-235737303D01*
X378903860Y-235355946D02*
X378854057Y-235322488D01*
X378075900Y-234425686D02*
X378049797Y-234371663D01*
D10*
X349250500Y-212725250D02*
X349250500Y-214312750D01*
X231775500Y-212725250D02*
X234950500Y-212725250D01*
D11*
X388144250Y-180181500D02*
G75*
G02*
X389731750Y-178593950I1587550J0D01*
G01*
D10*
X311150500Y-215900250D02*
X311150500Y-223837750D01*
D11*
X206375500Y-233362750D02*
X206374744Y-233422743D01*
X206049851Y-234564771D02*
X206018914Y-234616178D01*
X205161973Y-235438026D02*
X205109317Y-235466787D01*
X203954710Y-235743671D02*
X203894737Y-235741919D01*
X202758262Y-235398108D02*
X202707375Y-235366323D01*
X201899869Y-234495853D02*
X201871987Y-234442727D01*
X201614313Y-233283682D02*
X201617060Y-233223746D01*
X201979694Y-232093136D02*
X202012320Y-232042784D01*
X202896078Y-231249844D02*
X202949660Y-231222847D01*
X204112824Y-230984454D02*
X204172706Y-230988196D01*
X205297139Y-231369553D02*
X205346942Y-231403011D01*
X206125099Y-232299813D02*
X206151202Y-232353836D01*
D12*
X178691861Y-227012750D02*
G75*
G02*
X178908072Y-226923179I216039J-215750D01*
G01*
D10*
X290513000Y-223837750D02*
X293688000Y-223837750D01*
X320675500Y-222250250D02*
X320675500Y-218281500D01*
D11*
X339725500Y-230187750D02*
X339725500Y-230127750D01*
X339725500Y-228927750D02*
X339725500Y-228867750D01*
X339725500Y-227667750D02*
X339725500Y-227607750D01*
X339725500Y-226407750D02*
X339725500Y-226347750D01*
X339725500Y-225147750D02*
X339725500Y-225087750D01*
X339725500Y-223887750D02*
X339725500Y-223827750D01*
X339725500Y-222627750D02*
X339725500Y-222567750D01*
X339725500Y-221367750D02*
X339725500Y-221307750D01*
D10*
X228600500Y-212725250D02*
X225425500Y-212725250D01*
D11*
X413544250Y-197644000D02*
X389731750Y-197644000D01*
X415131750Y-161925250D02*
X415131750Y-196056500D01*
D12*
X180098690Y-226923205D02*
G75*
G02*
X180314882Y-227012782I-90J-305895D01*
G01*
D11*
X388144250Y-196056500D02*
X388144250Y-180181500D01*
D10*
X263525500Y-222250250D02*
X263525500Y-218281500D01*
X313531750Y-226219000D02*
G75*
G02*
X308769250Y-226219000I-2381250J0D01*
G01*
X308769250Y-226219000D02*
G75*
G02*
X313531750Y-226219000I2381250J0D01*
G01*
X244475500Y-215106500D02*
X244475500Y-215900250D01*
D12*
X181786169Y-228484008D02*
X180314911Y-227012750D01*
D10*
X368300500Y-230187750D02*
X368300500Y-233362750D01*
D11*
X244475500Y-230187750D02*
X244475500Y-230127750D01*
X244475500Y-228927750D02*
X244475500Y-228867750D01*
X244475500Y-227667750D02*
X244475500Y-227607750D01*
X244475500Y-226407750D02*
X244475500Y-226347750D01*
X244475500Y-225147750D02*
X244475500Y-225087750D01*
X244475500Y-223887750D02*
X244475500Y-223827750D01*
X244475500Y-222627750D02*
X244475500Y-222567750D01*
X244475500Y-221367750D02*
X244475500Y-221307750D01*
D10*
X225425500Y-212725250D02*
X225425500Y-214312750D01*
D11*
X401638000Y-177006500D02*
G75*
G02*
X400050500Y-178594000I-1587500J0D01*
G01*
D10*
X304006750Y-218281500D02*
X305656750Y-218281500D01*
X306256750Y-218281500D02*
X307906750Y-218281500D01*
X308506750Y-218281500D02*
X310156750Y-218281500D01*
X310756750Y-218281500D02*
X312406750Y-218281500D01*
X313006750Y-218281500D02*
X314656750Y-218281500D01*
X315256750Y-218281500D02*
X316906750Y-218281500D01*
X317506750Y-218281500D02*
X319156750Y-218281500D01*
X319756750Y-218281500D02*
X321406750Y-218281500D01*
X322006750Y-218281500D02*
X323656750Y-218281500D01*
X324256750Y-218281500D02*
X325906750Y-218281500D01*
X326506750Y-218281500D02*
X328156750Y-218281500D01*
X328756750Y-218281500D02*
X330406750Y-218281500D01*
X331006750Y-218281500D02*
X332656750Y-218281500D01*
X333256750Y-218281500D02*
X334906750Y-218281500D01*
X335506750Y-218281500D02*
X337156750Y-218281500D01*
D11*
X415131750Y-196056500D02*
G75*
G02*
X413544250Y-197644050I-1587550J0D01*
G01*
D10*
X310356750Y-215106500D02*
X244475500Y-215106500D01*
D12*
X182066802Y-228600250D02*
X189409197Y-228600250D01*
D13*
X269875500Y-200025250D02*
X306388000Y-200025250D01*
D11*
X206375500Y-233362750D02*
X206435500Y-233362750D01*
X207635500Y-233362750D02*
X207695500Y-233362750D01*
X208895500Y-233362750D02*
X208955500Y-233362750D01*
X210155500Y-233362750D02*
X210215500Y-233362750D01*
X211415500Y-233362750D02*
X211475500Y-233362750D01*
X212675500Y-233362750D02*
X212735500Y-233362750D01*
X213935500Y-233362750D02*
X213995500Y-233362750D01*
X215195500Y-233362750D02*
X215255500Y-233362750D01*
X216455500Y-233362750D02*
X216515500Y-233362750D01*
X217715500Y-233362750D02*
X217775500Y-233362750D01*
X218975500Y-233362750D02*
X219035500Y-233362750D01*
X220235500Y-233362750D02*
X220295500Y-233362750D01*
X221495500Y-233362750D02*
X221555500Y-233362750D01*
X222755500Y-233362750D02*
X222815500Y-233362750D01*
X224015500Y-233362750D02*
X224075500Y-233362750D01*
X225275500Y-233362750D02*
X225335500Y-233362750D01*
X389731750Y-197644000D02*
G75*
G02*
X388144300Y-196056500I50J1587500D01*
G01*
X401638000Y-161925250D02*
G75*
G02*
X403225500Y-160337800I1587500J-50D01*
G01*
X401638000Y-177006500D02*
X401638000Y-161925250D01*
D10*
X360363000Y-215106500D02*
X377825500Y-215106500D01*
D11*
X413544250Y-160337750D02*
G75*
G02*
X415131750Y-161925250I-50J-1587550D01*
G01*
X291306750Y-230187750D02*
X291246750Y-230187750D01*
X290046750Y-230187750D02*
X289986750Y-230187750D01*
X288786750Y-230187750D02*
X288726750Y-230187750D01*
X287526750Y-230187750D02*
X287466750Y-230187750D01*
X286266750Y-230187750D02*
X286206750Y-230187750D01*
X285006750Y-230187750D02*
X284946750Y-230187750D01*
X283746750Y-230187750D02*
X283686750Y-230187750D01*
X282486750Y-230187750D02*
X282426750Y-230187750D01*
X281226750Y-230187750D02*
X281166750Y-230187750D01*
X279966750Y-230187750D02*
X279906750Y-230187750D01*
X278706750Y-230187750D02*
X278646750Y-230187750D01*
X277446750Y-230187750D02*
X277386750Y-230187750D01*
X276186750Y-230187750D02*
X276126750Y-230187750D01*
X274926750Y-230187750D02*
X274866750Y-230187750D01*
X273666750Y-230187750D02*
X273606750Y-230187750D01*
X272406750Y-230187750D02*
X272346750Y-230187750D01*
X271146750Y-230187750D02*
X271086750Y-230187750D01*
X269886750Y-230187750D02*
X269826750Y-230187750D01*
X268626750Y-230187750D02*
X268566750Y-230187750D01*
X267366750Y-230187750D02*
X267306750Y-230187750D01*
X266106750Y-230187750D02*
X266046750Y-230187750D01*
X264846750Y-230187750D02*
X264786750Y-230187750D01*
X263586750Y-230187750D02*
X263526750Y-230187750D01*
X262326750Y-230187750D02*
X262266750Y-230187750D01*
X261066750Y-230187750D02*
X261006750Y-230187750D01*
X259806750Y-230187750D02*
X259746750Y-230187750D01*
X258546750Y-230187750D02*
X258486750Y-230187750D01*
X257286750Y-230187750D02*
X257226750Y-230187750D01*
X256026750Y-230187750D02*
X255966750Y-230187750D01*
X254766750Y-230187750D02*
X254706750Y-230187750D01*
X253506750Y-230187750D02*
X253446750Y-230187750D01*
X252246750Y-230187750D02*
X252186750Y-230187750D01*
X250986750Y-230187750D02*
X250926750Y-230187750D01*
X249726750Y-230187750D02*
X249666750Y-230187750D01*
X248466750Y-230187750D02*
X248406750Y-230187750D01*
X247206750Y-230187750D02*
X247146750Y-230187750D01*
X245946750Y-230187750D02*
X245886750Y-230187750D01*
X244686750Y-230187750D02*
X244626750Y-230187750D01*
D10*
X215900500Y-230187750D02*
X215900500Y-233362750D01*
D12*
X182066802Y-228600250D02*
G75*
G02*
X181786194Y-228483983I-2J396750D01*
G01*
D10*
X311944250Y-215106500D02*
X347663000Y-215106500D01*
D12*
X180098690Y-226923205D02*
X178908062Y-226923205D01*
D11*
X358775500Y-233362750D02*
X358774744Y-233422743D01*
X358449851Y-234564771D02*
X358418914Y-234616178D01*
X357561973Y-235438026D02*
X357509317Y-235466787D01*
X356354710Y-235743671D02*
X356294737Y-235741919D01*
X355158262Y-235398108D02*
X355107375Y-235366323D01*
X354299869Y-234495853D02*
X354271987Y-234442727D01*
X354014313Y-233283682D02*
X354017060Y-233223746D01*
X354379694Y-232093136D02*
X354412320Y-232042784D01*
X355296078Y-231249844D02*
X355349660Y-231222847D01*
X356512824Y-230984454D02*
X356572706Y-230988196D01*
X357697139Y-231369553D02*
X357746942Y-231403011D01*
X358525099Y-232299813D02*
X358551202Y-232353836D01*
D10*
X246856750Y-218281500D02*
X248506750Y-218281500D01*
X249106750Y-218281500D02*
X250756750Y-218281500D01*
X251356750Y-218281500D02*
X253006750Y-218281500D01*
X253606750Y-218281500D02*
X255256750Y-218281500D01*
X255856750Y-218281500D02*
X257506750Y-218281500D01*
X258106750Y-218281500D02*
X259756750Y-218281500D01*
X260356750Y-218281500D02*
X262006750Y-218281500D01*
X262606750Y-218281500D02*
X264256750Y-218281500D01*
X264856750Y-218281500D02*
X266506750Y-218281500D01*
X267106750Y-218281500D02*
X268756750Y-218281500D01*
X269356750Y-218281500D02*
X271006750Y-218281500D01*
X271606750Y-218281500D02*
X273256750Y-218281500D01*
X273856750Y-218281500D02*
X275506750Y-218281500D01*
X276106750Y-218281500D02*
X277756750Y-218281500D01*
X278356750Y-218281500D02*
X280006750Y-218281500D01*
D11*
X403225500Y-160337750D02*
X413544250Y-160337750D01*
D10*
X358775500Y-212725250D02*
X358775500Y-214312750D01*
D12*
X178691861Y-227012750D02*
X178475650Y-227228961D01*
D11*
X358775500Y-233362750D02*
X358835500Y-233362750D01*
X360035500Y-233362750D02*
X360095500Y-233362750D01*
X361295500Y-233362750D02*
X361355500Y-233362750D01*
X362555500Y-233362750D02*
X362615500Y-233362750D01*
X363815500Y-233362750D02*
X363875500Y-233362750D01*
X365075500Y-233362750D02*
X365135500Y-233362750D01*
X366335500Y-233362750D02*
X366395500Y-233362750D01*
X367595500Y-233362750D02*
X367655500Y-233362750D01*
X368855500Y-233362750D02*
X368915500Y-233362750D01*
X370115500Y-233362750D02*
X370175500Y-233362750D01*
X371375500Y-233362750D02*
X371435500Y-233362750D01*
X372635500Y-233362750D02*
X372695500Y-233362750D01*
X373895500Y-233362750D02*
X373955500Y-233362750D01*
X375155500Y-233362750D02*
X375215500Y-233362750D01*
X376415500Y-233362750D02*
X376475500Y-233362750D01*
X377675500Y-233362750D02*
X377735500Y-233362750D01*
D10*
X234950500Y-212725250D02*
X234950500Y-214312750D01*
D11*
X389731750Y-178594000D02*
X400050500Y-178594000D01*
D12*
X189409197Y-228600642D02*
G75*
G02*
X189806058Y-228997518I203J-396658D01*
G01*
D10*
X352425500Y-212725250D02*
X349250500Y-212725250D01*
X355600500Y-212725250D02*
X358775500Y-212725250D01*
D11*
X206375500Y-233362750D02*
X206375500Y-233362750D01*
D12*
X189805218Y-230116655D02*
X189806073Y-228997518D01*
D11*
X292894250Y-230187750D02*
X292954250Y-230187750D01*
X294154250Y-230187750D02*
X294214250Y-230187750D01*
X295414250Y-230187750D02*
X295474250Y-230187750D01*
X296674250Y-230187750D02*
X296734250Y-230187750D01*
X297934250Y-230187750D02*
X297994250Y-230187750D01*
X299194250Y-230187750D02*
X299254250Y-230187750D01*
X300454250Y-230187750D02*
X300514250Y-230187750D01*
X301714250Y-230187750D02*
X301774250Y-230187750D01*
X302974250Y-230187750D02*
X303034250Y-230187750D01*
X304234250Y-230187750D02*
X304294250Y-230187750D01*
X305494250Y-230187750D02*
X305554250Y-230187750D01*
X306754250Y-230187750D02*
X306814250Y-230187750D01*
X308014250Y-230187750D02*
X308074250Y-230187750D01*
X309274250Y-230187750D02*
X309334250Y-230187750D01*
X310534250Y-230187750D02*
X310594250Y-230187750D01*
X311794250Y-230187750D02*
X311854250Y-230187750D01*
X313054250Y-230187750D02*
X313114250Y-230187750D01*
X314314250Y-230187750D02*
X314374250Y-230187750D01*
X315574250Y-230187750D02*
X315634250Y-230187750D01*
X316834250Y-230187750D02*
X316894250Y-230187750D01*
X318094250Y-230187750D02*
X318154250Y-230187750D01*
X319354250Y-230187750D02*
X319414250Y-230187750D01*
X320614250Y-230187750D02*
X320674250Y-230187750D01*
X321874250Y-230187750D02*
X321934250Y-230187750D01*
X323134250Y-230187750D02*
X323194250Y-230187750D01*
X324394250Y-230187750D02*
X324454250Y-230187750D01*
X325654250Y-230187750D02*
X325714250Y-230187750D01*
X326914250Y-230187750D02*
X326974250Y-230187750D01*
X328174250Y-230187750D02*
X328234250Y-230187750D01*
X329434250Y-230187750D02*
X329494250Y-230187750D01*
X330694250Y-230187750D02*
X330754250Y-230187750D01*
X331954250Y-230187750D02*
X332014250Y-230187750D01*
X333214250Y-230187750D02*
X333274250Y-230187750D01*
X334474250Y-230187750D02*
X334534250Y-230187750D01*
X335734250Y-230187750D02*
X335794250Y-230187750D01*
X336994250Y-230187750D02*
X337054250Y-230187750D01*
X338254250Y-230187750D02*
X338314250Y-230187750D01*
X339514250Y-230187750D02*
X339574250Y-230187750D01*
X225425500Y-233362750D02*
X225426255Y-233302756D01*
X225751148Y-232160728D02*
X225782085Y-232109321D01*
X226639026Y-231287473D02*
X226691682Y-231258712D01*
X227846289Y-230981828D02*
X227906262Y-230983580D01*
X229042737Y-231327391D02*
X229093624Y-231359176D01*
X229901130Y-232229646D02*
X229929012Y-232282772D01*
X230186686Y-233441817D02*
X230183939Y-233501753D01*
X229821305Y-234632363D02*
X229788679Y-234682715D01*
X228904921Y-235475655D02*
X228851339Y-235502652D01*
X227688175Y-235741045D02*
X227628293Y-235737303D01*
X226503860Y-235355946D02*
X226454057Y-235322488D01*
X225675900Y-234425686D02*
X225649797Y-234371663D01*
D12*
X292290976Y-223496219D02*
X292862404Y-223496219D01*
X292576690Y-223496219D02*
X292576690Y-222496219D01*
X292576690Y-222496219D02*
X292671928Y-222639076D01*
X292671928Y-222639076D02*
X292767166Y-222734314D01*
X292767166Y-222734314D02*
X292862404Y-222781933D01*
X291671928Y-222496219D02*
X291576690Y-222496219D01*
X291576690Y-222496219D02*
X291481452Y-222543838D01*
X291481452Y-222543838D02*
X291433833Y-222591457D01*
X291433833Y-222591457D02*
X291386214Y-222686695D01*
X291386214Y-222686695D02*
X291338595Y-222877171D01*
X291338595Y-222877171D02*
X291338595Y-223115266D01*
X291338595Y-223115266D02*
X291386214Y-223305742D01*
X291386214Y-223305742D02*
X291433833Y-223400980D01*
X291433833Y-223400980D02*
X291481452Y-223448600D01*
X291481452Y-223448600D02*
X291576690Y-223496219D01*
X291576690Y-223496219D02*
X291671928Y-223496219D01*
X291671928Y-223496219D02*
X291767166Y-223448600D01*
X291767166Y-223448600D02*
X291814785Y-223400980D01*
X291814785Y-223400980D02*
X291862404Y-223305742D01*
X291862404Y-223305742D02*
X291910023Y-223115266D01*
X291910023Y-223115266D02*
X291910023Y-222877171D01*
X291910023Y-222877171D02*
X291862404Y-222686695D01*
X291862404Y-222686695D02*
X291814785Y-222591457D01*
X291814785Y-222591457D02*
X291767166Y-222543838D01*
X291767166Y-222543838D02*
X291671928Y-222496219D01*
X368586213Y-228941457D02*
X368538594Y-228893838D01*
X368538594Y-228893838D02*
X368443356Y-228846219D01*
X368443356Y-228846219D02*
X368205261Y-228846219D01*
X368205261Y-228846219D02*
X368110023Y-228893838D01*
X368110023Y-228893838D02*
X368062404Y-228941457D01*
X368062404Y-228941457D02*
X368014785Y-229036695D01*
X368014785Y-229036695D02*
X368014785Y-229131933D01*
X368014785Y-229131933D02*
X368062404Y-229274790D01*
X368062404Y-229274790D02*
X368633832Y-229846219D01*
X368633832Y-229846219D02*
X368014785Y-229846219D01*
X188666325Y-229959730D02*
X188713944Y-230007350D01*
X188713944Y-230007350D02*
X188856801Y-230054969D01*
X188856801Y-230054969D02*
X188952039Y-230054969D01*
X188952039Y-230054969D02*
X189094896Y-230007350D01*
X189094896Y-230007350D02*
X189190134Y-229912111D01*
X189190134Y-229912111D02*
X189237753Y-229816873D01*
X189237753Y-229816873D02*
X189285372Y-229626397D01*
X189285372Y-229626397D02*
X189285372Y-229483540D01*
X189285372Y-229483540D02*
X189237753Y-229293064D01*
X189237753Y-229293064D02*
X189190134Y-229197826D01*
X189190134Y-229197826D02*
X189094896Y-229102588D01*
X189094896Y-229102588D02*
X188952039Y-229054969D01*
X188952039Y-229054969D02*
X188856801Y-229054969D01*
X188856801Y-229054969D02*
X188713944Y-229102588D01*
X188713944Y-229102588D02*
X188666325Y-229150207D01*
X187809182Y-230054969D02*
X187809182Y-229531159D01*
X187809182Y-229531159D02*
X187856801Y-229435921D01*
X187856801Y-229435921D02*
X187952039Y-229388302D01*
X187952039Y-229388302D02*
X188142515Y-229388302D01*
X188142515Y-229388302D02*
X188237753Y-229435921D01*
X187809182Y-230007350D02*
X187904420Y-230054969D01*
X187904420Y-230054969D02*
X188142515Y-230054969D01*
X188142515Y-230054969D02*
X188237753Y-230007350D01*
X188237753Y-230007350D02*
X188285372Y-229912111D01*
X188285372Y-229912111D02*
X188285372Y-229816873D01*
X188285372Y-229816873D02*
X188237753Y-229721635D01*
X188237753Y-229721635D02*
X188142515Y-229674016D01*
X188142515Y-229674016D02*
X187904420Y-229674016D01*
X187904420Y-229674016D02*
X187809182Y-229626397D01*
X187190134Y-230054969D02*
X187285372Y-230007350D01*
X187285372Y-230007350D02*
X187332991Y-229912111D01*
X187332991Y-229912111D02*
X187332991Y-229054969D01*
X186904419Y-229388302D02*
X186666324Y-230054969D01*
X186666324Y-230054969D02*
X186428229Y-229388302D01*
X186047276Y-230054969D02*
X186047276Y-229388302D01*
X186047276Y-229054969D02*
X186094895Y-229102588D01*
X186094895Y-229102588D02*
X186047276Y-229150207D01*
X186047276Y-229150207D02*
X185999657Y-229102588D01*
X185999657Y-229102588D02*
X186047276Y-229054969D01*
X186047276Y-229054969D02*
X186047276Y-229150207D01*
X185571086Y-229388302D02*
X185571086Y-230054969D01*
X185571086Y-229483540D02*
X185523467Y-229435921D01*
X185523467Y-229435921D02*
X185428229Y-229388302D01*
X185428229Y-229388302D02*
X185285372Y-229388302D01*
X185285372Y-229388302D02*
X185190134Y-229435921D01*
X185190134Y-229435921D02*
X185142515Y-229531159D01*
X185142515Y-229531159D02*
X185142515Y-230054969D01*
X184475848Y-229054969D02*
X184380610Y-229054969D01*
X184380610Y-229054969D02*
X184285372Y-229102588D01*
X184285372Y-229102588D02*
X184237753Y-229150207D01*
X184237753Y-229150207D02*
X184190134Y-229245445D01*
X184190134Y-229245445D02*
X184142515Y-229435921D01*
X184142515Y-229435921D02*
X184142515Y-229674016D01*
X184142515Y-229674016D02*
X184190134Y-229864492D01*
X184190134Y-229864492D02*
X184237753Y-229959730D01*
X184237753Y-229959730D02*
X184285372Y-230007350D01*
X184285372Y-230007350D02*
X184380610Y-230054969D01*
X184380610Y-230054969D02*
X184475848Y-230054969D01*
X184475848Y-230054969D02*
X184571086Y-230007350D01*
X184571086Y-230007350D02*
X184618705Y-229959730D01*
X184618705Y-229959730D02*
X184666324Y-229864492D01*
X184666324Y-229864492D02*
X184713943Y-229674016D01*
X184713943Y-229674016D02*
X184713943Y-229435921D01*
X184713943Y-229435921D02*
X184666324Y-229245445D01*
X184666324Y-229245445D02*
X184618705Y-229150207D01*
X184618705Y-229150207D02*
X184571086Y-229102588D01*
X184571086Y-229102588D02*
X184475848Y-229054969D01*
X183237753Y-229054969D02*
X183713943Y-229054969D01*
X183713943Y-229054969D02*
X183761562Y-229531159D01*
X183761562Y-229531159D02*
X183713943Y-229483540D01*
X183713943Y-229483540D02*
X183618705Y-229435921D01*
X183618705Y-229435921D02*
X183380610Y-229435921D01*
X183380610Y-229435921D02*
X183285372Y-229483540D01*
X183285372Y-229483540D02*
X183237753Y-229531159D01*
X183237753Y-229531159D02*
X183190134Y-229626397D01*
X183190134Y-229626397D02*
X183190134Y-229864492D01*
X183190134Y-229864492D02*
X183237753Y-229959730D01*
X183237753Y-229959730D02*
X183285372Y-230007350D01*
X183285372Y-230007350D02*
X183380610Y-230054969D01*
X183380610Y-230054969D02*
X183618705Y-230054969D01*
X183618705Y-230054969D02*
X183713943Y-230007350D01*
X183713943Y-230007350D02*
X183761562Y-229959730D01*
X182332991Y-229054969D02*
X182523467Y-229054969D01*
X182523467Y-229054969D02*
X182618705Y-229102588D01*
X182618705Y-229102588D02*
X182666324Y-229150207D01*
X182666324Y-229150207D02*
X182761562Y-229293064D01*
X182761562Y-229293064D02*
X182809181Y-229483540D01*
X182809181Y-229483540D02*
X182809181Y-229864492D01*
X182809181Y-229864492D02*
X182761562Y-229959730D01*
X182761562Y-229959730D02*
X182713943Y-230007350D01*
X182713943Y-230007350D02*
X182618705Y-230054969D01*
X182618705Y-230054969D02*
X182428229Y-230054969D01*
X182428229Y-230054969D02*
X182332991Y-230007350D01*
X182332991Y-230007350D02*
X182285372Y-229959730D01*
X182285372Y-229959730D02*
X182237753Y-229864492D01*
X182237753Y-229864492D02*
X182237753Y-229626397D01*
X182237753Y-229626397D02*
X182285372Y-229531159D01*
X182285372Y-229531159D02*
X182332991Y-229483540D01*
X182332991Y-229483540D02*
X182428229Y-229435921D01*
X182428229Y-229435921D02*
X182618705Y-229435921D01*
X182618705Y-229435921D02*
X182713943Y-229483540D01*
X182713943Y-229483540D02*
X182761562Y-229531159D01*
X182761562Y-229531159D02*
X182809181Y-229626397D01*
X181904419Y-229054969D02*
X181285372Y-229054969D01*
X181285372Y-229054969D02*
X181618705Y-229435921D01*
X181618705Y-229435921D02*
X181475848Y-229435921D01*
X181475848Y-229435921D02*
X181380610Y-229483540D01*
X181380610Y-229483540D02*
X181332991Y-229531159D01*
X181332991Y-229531159D02*
X181285372Y-229626397D01*
X181285372Y-229626397D02*
X181285372Y-229864492D01*
X181285372Y-229864492D02*
X181332991Y-229959730D01*
X181332991Y-229959730D02*
X181380610Y-230007350D01*
X181380610Y-230007350D02*
X181475848Y-230054969D01*
X181475848Y-230054969D02*
X181761562Y-230054969D01*
X181761562Y-230054969D02*
X181856800Y-230007350D01*
X181856800Y-230007350D02*
X181904419Y-229959730D01*
X359394547Y-215939671D02*
X359442166Y-215892052D01*
X359442166Y-215892052D02*
X359537404Y-215749195D01*
X359537404Y-215749195D02*
X359585023Y-215653957D01*
X359585023Y-215653957D02*
X359632642Y-215511100D01*
X359632642Y-215511100D02*
X359680261Y-215273004D01*
X359680261Y-215273004D02*
X359680261Y-215082528D01*
X359680261Y-215082528D02*
X359632642Y-214844433D01*
X359632642Y-214844433D02*
X359585023Y-214701576D01*
X359585023Y-214701576D02*
X359537404Y-214606338D01*
X359537404Y-214606338D02*
X359442166Y-214463480D01*
X359442166Y-214463480D02*
X359394547Y-214415861D01*
X358870737Y-214987290D02*
X358965975Y-214939671D01*
X358965975Y-214939671D02*
X359013594Y-214892052D01*
X359013594Y-214892052D02*
X359061213Y-214796814D01*
X359061213Y-214796814D02*
X359061213Y-214749195D01*
X359061213Y-214749195D02*
X359013594Y-214653957D01*
X359013594Y-214653957D02*
X358965975Y-214606338D01*
X358965975Y-214606338D02*
X358870737Y-214558719D01*
X358870737Y-214558719D02*
X358680261Y-214558719D01*
X358680261Y-214558719D02*
X358585023Y-214606338D01*
X358585023Y-214606338D02*
X358537404Y-214653957D01*
X358537404Y-214653957D02*
X358489785Y-214749195D01*
X358489785Y-214749195D02*
X358489785Y-214796814D01*
X358489785Y-214796814D02*
X358537404Y-214892052D01*
X358537404Y-214892052D02*
X358585023Y-214939671D01*
X358585023Y-214939671D02*
X358680261Y-214987290D01*
X358680261Y-214987290D02*
X358870737Y-214987290D01*
X358870737Y-214987290D02*
X358965975Y-215034909D01*
X358965975Y-215034909D02*
X359013594Y-215082528D01*
X359013594Y-215082528D02*
X359061213Y-215177766D01*
X359061213Y-215177766D02*
X359061213Y-215368242D01*
X359061213Y-215368242D02*
X359013594Y-215463480D01*
X359013594Y-215463480D02*
X358965975Y-215511100D01*
X358965975Y-215511100D02*
X358870737Y-215558719D01*
X358870737Y-215558719D02*
X358680261Y-215558719D01*
X358680261Y-215558719D02*
X358585023Y-215511100D01*
X358585023Y-215511100D02*
X358537404Y-215463480D01*
X358537404Y-215463480D02*
X358489785Y-215368242D01*
X358489785Y-215368242D02*
X358489785Y-215177766D01*
X358489785Y-215177766D02*
X358537404Y-215082528D01*
X358537404Y-215082528D02*
X358585023Y-215034909D01*
X358585023Y-215034909D02*
X358680261Y-214987290D01*
X358156451Y-215939671D02*
X358108832Y-215892052D01*
X358108832Y-215892052D02*
X358013594Y-215749195D01*
X358013594Y-215749195D02*
X357965975Y-215653957D01*
X357965975Y-215653957D02*
X357918356Y-215511100D01*
X357918356Y-215511100D02*
X357870737Y-215273004D01*
X357870737Y-215273004D02*
X357870737Y-215082528D01*
X357870737Y-215082528D02*
X357918356Y-214844433D01*
X357918356Y-214844433D02*
X357965975Y-214701576D01*
X357965975Y-214701576D02*
X358013594Y-214606338D01*
X358013594Y-214606338D02*
X358108832Y-214463480D01*
X358108832Y-214463480D02*
X358156451Y-214415861D01*
X195456089Y-223612080D02*
X195456089Y-224612080D01*
X195456089Y-223659699D02*
X195360851Y-223612080D01*
X195360851Y-223612080D02*
X195170375Y-223612080D01*
X195170375Y-223612080D02*
X195075137Y-223659699D01*
X195075137Y-223659699D02*
X195027518Y-223707318D01*
X195027518Y-223707318D02*
X194979899Y-223802556D01*
X194979899Y-223802556D02*
X194979899Y-224088270D01*
X194979899Y-224088270D02*
X195027518Y-224183508D01*
X195027518Y-224183508D02*
X195075137Y-224231128D01*
X195075137Y-224231128D02*
X195170375Y-224278747D01*
X195170375Y-224278747D02*
X195360851Y-224278747D01*
X195360851Y-224278747D02*
X195456089Y-224231128D01*
X194122756Y-224231128D02*
X194217994Y-224278747D01*
X194217994Y-224278747D02*
X194408470Y-224278747D01*
X194408470Y-224278747D02*
X194503708Y-224231128D01*
X194503708Y-224231128D02*
X194551327Y-224183508D01*
X194551327Y-224183508D02*
X194598946Y-224088270D01*
X194598946Y-224088270D02*
X194598946Y-223802556D01*
X194598946Y-223802556D02*
X194551327Y-223707318D01*
X194551327Y-223707318D02*
X194503708Y-223659699D01*
X194503708Y-223659699D02*
X194408470Y-223612080D01*
X194408470Y-223612080D02*
X194217994Y-223612080D01*
X194217994Y-223612080D02*
X194122756Y-223659699D01*
X193694184Y-224278747D02*
X193694184Y-223278747D01*
X193694184Y-223659699D02*
X193598946Y-223612080D01*
X193598946Y-223612080D02*
X193408470Y-223612080D01*
X193408470Y-223612080D02*
X193313232Y-223659699D01*
X193313232Y-223659699D02*
X193265613Y-223707318D01*
X193265613Y-223707318D02*
X193217994Y-223802556D01*
X193217994Y-223802556D02*
X193217994Y-224088270D01*
X193217994Y-224088270D02*
X193265613Y-224183508D01*
X193265613Y-224183508D02*
X193313232Y-224231128D01*
X193313232Y-224231128D02*
X193408470Y-224278747D01*
X193408470Y-224278747D02*
X193598946Y-224278747D01*
X193598946Y-224278747D02*
X193694184Y-224231128D01*
X192027517Y-224278747D02*
X192027517Y-223278747D01*
X192027517Y-223659699D02*
X191932279Y-223612080D01*
X191932279Y-223612080D02*
X191741803Y-223612080D01*
X191741803Y-223612080D02*
X191646565Y-223659699D01*
X191646565Y-223659699D02*
X191598946Y-223707318D01*
X191598946Y-223707318D02*
X191551327Y-223802556D01*
X191551327Y-223802556D02*
X191551327Y-224088270D01*
X191551327Y-224088270D02*
X191598946Y-224183508D01*
X191598946Y-224183508D02*
X191646565Y-224231128D01*
X191646565Y-224231128D02*
X191741803Y-224278747D01*
X191741803Y-224278747D02*
X191932279Y-224278747D01*
X191932279Y-224278747D02*
X192027517Y-224231128D01*
X190694184Y-224278747D02*
X190694184Y-223754937D01*
X190694184Y-223754937D02*
X190741803Y-223659699D01*
X190741803Y-223659699D02*
X190837041Y-223612080D01*
X190837041Y-223612080D02*
X191027517Y-223612080D01*
X191027517Y-223612080D02*
X191122755Y-223659699D01*
X190694184Y-224231128D02*
X190789422Y-224278747D01*
X190789422Y-224278747D02*
X191027517Y-224278747D01*
X191027517Y-224278747D02*
X191122755Y-224231128D01*
X191122755Y-224231128D02*
X191170374Y-224135889D01*
X191170374Y-224135889D02*
X191170374Y-224040651D01*
X191170374Y-224040651D02*
X191122755Y-223945413D01*
X191122755Y-223945413D02*
X191027517Y-223897794D01*
X191027517Y-223897794D02*
X190789422Y-223897794D01*
X190789422Y-223897794D02*
X190694184Y-223850175D01*
X190265612Y-224231128D02*
X190170374Y-224278747D01*
X190170374Y-224278747D02*
X189979898Y-224278747D01*
X189979898Y-224278747D02*
X189884660Y-224231128D01*
X189884660Y-224231128D02*
X189837041Y-224135889D01*
X189837041Y-224135889D02*
X189837041Y-224088270D01*
X189837041Y-224088270D02*
X189884660Y-223993032D01*
X189884660Y-223993032D02*
X189979898Y-223945413D01*
X189979898Y-223945413D02*
X190122755Y-223945413D01*
X190122755Y-223945413D02*
X190217993Y-223897794D01*
X190217993Y-223897794D02*
X190265612Y-223802556D01*
X190265612Y-223802556D02*
X190265612Y-223754937D01*
X190265612Y-223754937D02*
X190217993Y-223659699D01*
X190217993Y-223659699D02*
X190122755Y-223612080D01*
X190122755Y-223612080D02*
X189979898Y-223612080D01*
X189979898Y-223612080D02*
X189884660Y-223659699D01*
X189027517Y-224231128D02*
X189122755Y-224278747D01*
X189122755Y-224278747D02*
X189313231Y-224278747D01*
X189313231Y-224278747D02*
X189408469Y-224231128D01*
X189408469Y-224231128D02*
X189456088Y-224135889D01*
X189456088Y-224135889D02*
X189456088Y-223754937D01*
X189456088Y-223754937D02*
X189408469Y-223659699D01*
X189408469Y-223659699D02*
X189313231Y-223612080D01*
X189313231Y-223612080D02*
X189122755Y-223612080D01*
X189122755Y-223612080D02*
X189027517Y-223659699D01*
X189027517Y-223659699D02*
X188979898Y-223754937D01*
X188979898Y-223754937D02*
X188979898Y-223850175D01*
X188979898Y-223850175D02*
X189456088Y-223945413D01*
X188122755Y-224278747D02*
X188122755Y-223278747D01*
X188122755Y-224231128D02*
X188217993Y-224278747D01*
X188217993Y-224278747D02*
X188408469Y-224278747D01*
X188408469Y-224278747D02*
X188503707Y-224231128D01*
X188503707Y-224231128D02*
X188551326Y-224183508D01*
X188551326Y-224183508D02*
X188598945Y-224088270D01*
X188598945Y-224088270D02*
X188598945Y-223802556D01*
X188598945Y-223802556D02*
X188551326Y-223707318D01*
X188551326Y-223707318D02*
X188503707Y-223659699D01*
X188503707Y-223659699D02*
X188408469Y-223612080D01*
X188408469Y-223612080D02*
X188217993Y-223612080D01*
X188217993Y-223612080D02*
X188122755Y-223659699D01*
X186741802Y-224278747D02*
X186837040Y-224231128D01*
X186837040Y-224231128D02*
X186884659Y-224183508D01*
X186884659Y-224183508D02*
X186932278Y-224088270D01*
X186932278Y-224088270D02*
X186932278Y-223802556D01*
X186932278Y-223802556D02*
X186884659Y-223707318D01*
X186884659Y-223707318D02*
X186837040Y-223659699D01*
X186837040Y-223659699D02*
X186741802Y-223612080D01*
X186741802Y-223612080D02*
X186598945Y-223612080D01*
X186598945Y-223612080D02*
X186503707Y-223659699D01*
X186503707Y-223659699D02*
X186456088Y-223707318D01*
X186456088Y-223707318D02*
X186408469Y-223802556D01*
X186408469Y-223802556D02*
X186408469Y-224088270D01*
X186408469Y-224088270D02*
X186456088Y-224183508D01*
X186456088Y-224183508D02*
X186503707Y-224231128D01*
X186503707Y-224231128D02*
X186598945Y-224278747D01*
X186598945Y-224278747D02*
X186741802Y-224278747D01*
X185979897Y-223612080D02*
X185979897Y-224278747D01*
X185979897Y-223707318D02*
X185932278Y-223659699D01*
X185932278Y-223659699D02*
X185837040Y-223612080D01*
X185837040Y-223612080D02*
X185694183Y-223612080D01*
X185694183Y-223612080D02*
X185598945Y-223659699D01*
X185598945Y-223659699D02*
X185551326Y-223754937D01*
X185551326Y-223754937D02*
X185551326Y-224278747D01*
X184313230Y-224278747D02*
X184313230Y-223612080D01*
X184313230Y-223707318D02*
X184265611Y-223659699D01*
X184265611Y-223659699D02*
X184170373Y-223612080D01*
X184170373Y-223612080D02*
X184027516Y-223612080D01*
X184027516Y-223612080D02*
X183932278Y-223659699D01*
X183932278Y-223659699D02*
X183884659Y-223754937D01*
X183884659Y-223754937D02*
X183884659Y-224278747D01*
X183884659Y-223754937D02*
X183837040Y-223659699D01*
X183837040Y-223659699D02*
X183741802Y-223612080D01*
X183741802Y-223612080D02*
X183598945Y-223612080D01*
X183598945Y-223612080D02*
X183503706Y-223659699D01*
X183503706Y-223659699D02*
X183456087Y-223754937D01*
X183456087Y-223754937D02*
X183456087Y-224278747D01*
X182551326Y-224278747D02*
X182551326Y-223754937D01*
X182551326Y-223754937D02*
X182598945Y-223659699D01*
X182598945Y-223659699D02*
X182694183Y-223612080D01*
X182694183Y-223612080D02*
X182884659Y-223612080D01*
X182884659Y-223612080D02*
X182979897Y-223659699D01*
X182551326Y-224231128D02*
X182646564Y-224278747D01*
X182646564Y-224278747D02*
X182884659Y-224278747D01*
X182884659Y-224278747D02*
X182979897Y-224231128D01*
X182979897Y-224231128D02*
X183027516Y-224135889D01*
X183027516Y-224135889D02*
X183027516Y-224040651D01*
X183027516Y-224040651D02*
X182979897Y-223945413D01*
X182979897Y-223945413D02*
X182884659Y-223897794D01*
X182884659Y-223897794D02*
X182646564Y-223897794D01*
X182646564Y-223897794D02*
X182551326Y-223850175D01*
X182217992Y-223612080D02*
X181837040Y-223612080D01*
X182075135Y-223278747D02*
X182075135Y-224135889D01*
X182075135Y-224135889D02*
X182027516Y-224231128D01*
X182027516Y-224231128D02*
X181932278Y-224278747D01*
X181932278Y-224278747D02*
X181837040Y-224278747D01*
X181646563Y-223612080D02*
X181265611Y-223612080D01*
X181503706Y-223278747D02*
X181503706Y-224135889D01*
X181503706Y-224135889D02*
X181456087Y-224231128D01*
X181456087Y-224231128D02*
X181360849Y-224278747D01*
X181360849Y-224278747D02*
X181265611Y-224278747D01*
X180932277Y-224278747D02*
X180932277Y-223278747D01*
X180503706Y-224278747D02*
X180503706Y-223754937D01*
X180503706Y-223754937D02*
X180551325Y-223659699D01*
X180551325Y-223659699D02*
X180646563Y-223612080D01*
X180646563Y-223612080D02*
X180789420Y-223612080D01*
X180789420Y-223612080D02*
X180884658Y-223659699D01*
X180884658Y-223659699D02*
X180932277Y-223707318D01*
X179646563Y-224231128D02*
X179741801Y-224278747D01*
X179741801Y-224278747D02*
X179932277Y-224278747D01*
X179932277Y-224278747D02*
X180027515Y-224231128D01*
X180027515Y-224231128D02*
X180075134Y-224135889D01*
X180075134Y-224135889D02*
X180075134Y-223754937D01*
X180075134Y-223754937D02*
X180027515Y-223659699D01*
X180027515Y-223659699D02*
X179932277Y-223612080D01*
X179932277Y-223612080D02*
X179741801Y-223612080D01*
X179741801Y-223612080D02*
X179646563Y-223659699D01*
X179646563Y-223659699D02*
X179598944Y-223754937D01*
X179598944Y-223754937D02*
X179598944Y-223850175D01*
X179598944Y-223850175D02*
X180075134Y-223945413D01*
X179265610Y-223612080D02*
X179075134Y-224278747D01*
X179075134Y-224278747D02*
X178884658Y-223802556D01*
X178884658Y-223802556D02*
X178694182Y-224278747D01*
X178694182Y-224278747D02*
X178503706Y-223612080D01*
X177694182Y-224278747D02*
X177694182Y-223278747D01*
X177694182Y-224231128D02*
X177789420Y-224278747D01*
X177789420Y-224278747D02*
X177979896Y-224278747D01*
X177979896Y-224278747D02*
X178075134Y-224231128D01*
X178075134Y-224231128D02*
X178122753Y-224183508D01*
X178122753Y-224183508D02*
X178170372Y-224088270D01*
X178170372Y-224088270D02*
X178170372Y-223802556D01*
X178170372Y-223802556D02*
X178122753Y-223707318D01*
X178122753Y-223707318D02*
X178075134Y-223659699D01*
X178075134Y-223659699D02*
X177979896Y-223612080D01*
X177979896Y-223612080D02*
X177789420Y-223612080D01*
X177789420Y-223612080D02*
X177694182Y-223659699D01*
X177217991Y-224278747D02*
X177217991Y-223612080D01*
X177217991Y-223278747D02*
X177265610Y-223326366D01*
X177265610Y-223326366D02*
X177217991Y-223373985D01*
X177217991Y-223373985D02*
X177170372Y-223326366D01*
X177170372Y-223326366D02*
X177217991Y-223278747D01*
X177217991Y-223278747D02*
X177217991Y-223373985D01*
X176313230Y-224278747D02*
X176313230Y-223754937D01*
X176313230Y-223754937D02*
X176360849Y-223659699D01*
X176360849Y-223659699D02*
X176456087Y-223612080D01*
X176456087Y-223612080D02*
X176646563Y-223612080D01*
X176646563Y-223612080D02*
X176741801Y-223659699D01*
X176313230Y-224231128D02*
X176408468Y-224278747D01*
X176408468Y-224278747D02*
X176646563Y-224278747D01*
X176646563Y-224278747D02*
X176741801Y-224231128D01*
X176741801Y-224231128D02*
X176789420Y-224135889D01*
X176789420Y-224135889D02*
X176789420Y-224040651D01*
X176789420Y-224040651D02*
X176741801Y-223945413D01*
X176741801Y-223945413D02*
X176646563Y-223897794D01*
X176646563Y-223897794D02*
X176408468Y-223897794D01*
X176408468Y-223897794D02*
X176313230Y-223850175D01*
X175884658Y-224231128D02*
X175789420Y-224278747D01*
X175789420Y-224278747D02*
X175598944Y-224278747D01*
X175598944Y-224278747D02*
X175503706Y-224231128D01*
X175503706Y-224231128D02*
X175456087Y-224135889D01*
X175456087Y-224135889D02*
X175456087Y-224088270D01*
X175456087Y-224088270D02*
X175503706Y-223993032D01*
X175503706Y-223993032D02*
X175598944Y-223945413D01*
X175598944Y-223945413D02*
X175741801Y-223945413D01*
X175741801Y-223945413D02*
X175837039Y-223897794D01*
X175837039Y-223897794D02*
X175884658Y-223802556D01*
X175884658Y-223802556D02*
X175884658Y-223754937D01*
X175884658Y-223754937D02*
X175837039Y-223659699D01*
X175837039Y-223659699D02*
X175741801Y-223612080D01*
X175741801Y-223612080D02*
X175598944Y-223612080D01*
X175598944Y-223612080D02*
X175503706Y-223659699D01*
X174979896Y-223278747D02*
X175075134Y-223469223D01*
X188360850Y-225888691D02*
X188360850Y-225222024D01*
X188360850Y-225317262D02*
X188313231Y-225269643D01*
X188313231Y-225269643D02*
X188217993Y-225222024D01*
X188217993Y-225222024D02*
X188075136Y-225222024D01*
X188075136Y-225222024D02*
X187979898Y-225269643D01*
X187979898Y-225269643D02*
X187932279Y-225364881D01*
X187932279Y-225364881D02*
X187932279Y-225888691D01*
X187932279Y-225364881D02*
X187884660Y-225269643D01*
X187884660Y-225269643D02*
X187789422Y-225222024D01*
X187789422Y-225222024D02*
X187646565Y-225222024D01*
X187646565Y-225222024D02*
X187551326Y-225269643D01*
X187551326Y-225269643D02*
X187503707Y-225364881D01*
X187503707Y-225364881D02*
X187503707Y-225888691D01*
X187122755Y-224888691D02*
X186503708Y-224888691D01*
X186503708Y-224888691D02*
X186837041Y-225269643D01*
X186837041Y-225269643D02*
X186694184Y-225269643D01*
X186694184Y-225269643D02*
X186598946Y-225317262D01*
X186598946Y-225317262D02*
X186551327Y-225364881D01*
X186551327Y-225364881D02*
X186503708Y-225460119D01*
X186503708Y-225460119D02*
X186503708Y-225698214D01*
X186503708Y-225698214D02*
X186551327Y-225793452D01*
X186551327Y-225793452D02*
X186598946Y-225841072D01*
X186598946Y-225841072D02*
X186694184Y-225888691D01*
X186694184Y-225888691D02*
X186979898Y-225888691D01*
X186979898Y-225888691D02*
X187075136Y-225841072D01*
X187075136Y-225841072D02*
X187122755Y-225793452D01*
X186075136Y-225222024D02*
X186075136Y-225888691D01*
X186075136Y-225317262D02*
X186027517Y-225269643D01*
X186027517Y-225269643D02*
X185932279Y-225222024D01*
X185932279Y-225222024D02*
X185789422Y-225222024D01*
X185789422Y-225222024D02*
X185694184Y-225269643D01*
X185694184Y-225269643D02*
X185646565Y-225364881D01*
X185646565Y-225364881D02*
X185646565Y-225888691D01*
X185265612Y-224888691D02*
X184646565Y-224888691D01*
X184646565Y-224888691D02*
X184979898Y-225269643D01*
X184979898Y-225269643D02*
X184837041Y-225269643D01*
X184837041Y-225269643D02*
X184741803Y-225317262D01*
X184741803Y-225317262D02*
X184694184Y-225364881D01*
X184694184Y-225364881D02*
X184646565Y-225460119D01*
X184646565Y-225460119D02*
X184646565Y-225698214D01*
X184646565Y-225698214D02*
X184694184Y-225793452D01*
X184694184Y-225793452D02*
X184741803Y-225841072D01*
X184741803Y-225841072D02*
X184837041Y-225888691D01*
X184837041Y-225888691D02*
X185122755Y-225888691D01*
X185122755Y-225888691D02*
X185217993Y-225841072D01*
X185217993Y-225841072D02*
X185265612Y-225793452D01*
X184313231Y-225222024D02*
X184075136Y-225888691D01*
X184075136Y-225888691D02*
X183837041Y-225222024D01*
X183027517Y-225888691D02*
X183027517Y-225364881D01*
X183027517Y-225364881D02*
X183075136Y-225269643D01*
X183075136Y-225269643D02*
X183170374Y-225222024D01*
X183170374Y-225222024D02*
X183360850Y-225222024D01*
X183360850Y-225222024D02*
X183456088Y-225269643D01*
X183027517Y-225841072D02*
X183122755Y-225888691D01*
X183122755Y-225888691D02*
X183360850Y-225888691D01*
X183360850Y-225888691D02*
X183456088Y-225841072D01*
X183456088Y-225841072D02*
X183503707Y-225745833D01*
X183503707Y-225745833D02*
X183503707Y-225650595D01*
X183503707Y-225650595D02*
X183456088Y-225555357D01*
X183456088Y-225555357D02*
X183360850Y-225507738D01*
X183360850Y-225507738D02*
X183122755Y-225507738D01*
X183122755Y-225507738D02*
X183027517Y-225460119D01*
X182551326Y-225222024D02*
X182551326Y-225888691D01*
X182551326Y-225317262D02*
X182503707Y-225269643D01*
X182503707Y-225269643D02*
X182408469Y-225222024D01*
X182408469Y-225222024D02*
X182265612Y-225222024D01*
X182265612Y-225222024D02*
X182170374Y-225269643D01*
X182170374Y-225269643D02*
X182122755Y-225364881D01*
X182122755Y-225364881D02*
X182122755Y-225888691D01*
X216186213Y-228941457D02*
X216138594Y-228893838D01*
X216138594Y-228893838D02*
X216043356Y-228846219D01*
X216043356Y-228846219D02*
X215805261Y-228846219D01*
X215805261Y-228846219D02*
X215710023Y-228893838D01*
X215710023Y-228893838D02*
X215662404Y-228941457D01*
X215662404Y-228941457D02*
X215614785Y-229036695D01*
X215614785Y-229036695D02*
X215614785Y-229131933D01*
X215614785Y-229131933D02*
X215662404Y-229274790D01*
X215662404Y-229274790D02*
X216233832Y-229846219D01*
X216233832Y-229846219D02*
X215614785Y-229846219D01*
X291910023Y-229639969D02*
X292100499Y-229639969D01*
X292100499Y-229639969D02*
X292195737Y-229687588D01*
X292195737Y-229687588D02*
X292243356Y-229735207D01*
X292243356Y-229735207D02*
X292338594Y-229878064D01*
X292338594Y-229878064D02*
X292386213Y-230068540D01*
X292386213Y-230068540D02*
X292386213Y-230449492D01*
X292386213Y-230449492D02*
X292338594Y-230544730D01*
X292338594Y-230544730D02*
X292290975Y-230592350D01*
X292290975Y-230592350D02*
X292195737Y-230639969D01*
X292195737Y-230639969D02*
X292005261Y-230639969D01*
X292005261Y-230639969D02*
X291910023Y-230592350D01*
X291910023Y-230592350D02*
X291862404Y-230544730D01*
X291862404Y-230544730D02*
X291814785Y-230449492D01*
X291814785Y-230449492D02*
X291814785Y-230211397D01*
X291814785Y-230211397D02*
X291862404Y-230116159D01*
X291862404Y-230116159D02*
X291910023Y-230068540D01*
X291910023Y-230068540D02*
X292005261Y-230020921D01*
X292005261Y-230020921D02*
X292195737Y-230020921D01*
X292195737Y-230020921D02*
X292290975Y-230068540D01*
X292290975Y-230068540D02*
X292338594Y-230116159D01*
X292338594Y-230116159D02*
X292386213Y-230211397D01*
X263858832Y-222496219D02*
X263239785Y-222496219D01*
X263239785Y-222496219D02*
X263573118Y-222877171D01*
X263573118Y-222877171D02*
X263430261Y-222877171D01*
X263430261Y-222877171D02*
X263335023Y-222924790D01*
X263335023Y-222924790D02*
X263287404Y-222972409D01*
X263287404Y-222972409D02*
X263239785Y-223067647D01*
X263239785Y-223067647D02*
X263239785Y-223305742D01*
X263239785Y-223305742D02*
X263287404Y-223400980D01*
X263287404Y-223400980D02*
X263335023Y-223448600D01*
X263335023Y-223448600D02*
X263430261Y-223496219D01*
X263430261Y-223496219D02*
X263715975Y-223496219D01*
X263715975Y-223496219D02*
X263811213Y-223448600D01*
X263811213Y-223448600D02*
X263858832Y-223400980D01*
X377539785Y-223496219D02*
X378111213Y-223496219D01*
X377825499Y-223496219D02*
X377825499Y-222496219D01*
X377825499Y-222496219D02*
X377920737Y-222639076D01*
X377920737Y-222639076D02*
X378015975Y-222734314D01*
X378015975Y-222734314D02*
X378111213Y-222781933D01*
X190373416Y-210796219D02*
X190944844Y-210796219D01*
X190659130Y-210796219D02*
X190659130Y-209796219D01*
X190659130Y-209796219D02*
X190754368Y-209939076D01*
X190754368Y-209939076D02*
X190849606Y-210034314D01*
X190849606Y-210034314D02*
X190944844Y-210081933D01*
X190040082Y-209796219D02*
X189373416Y-209796219D01*
X189373416Y-209796219D02*
X189801987Y-210796219D01*
X188516273Y-209796219D02*
X188992463Y-209796219D01*
X188992463Y-209796219D02*
X189040082Y-210272409D01*
X189040082Y-210272409D02*
X188992463Y-210224790D01*
X188992463Y-210224790D02*
X188897225Y-210177171D01*
X188897225Y-210177171D02*
X188659130Y-210177171D01*
X188659130Y-210177171D02*
X188563892Y-210224790D01*
X188563892Y-210224790D02*
X188516273Y-210272409D01*
X188516273Y-210272409D02*
X188468654Y-210367647D01*
X188468654Y-210367647D02*
X188468654Y-210605742D01*
X188468654Y-210605742D02*
X188516273Y-210700980D01*
X188516273Y-210700980D02*
X188563892Y-210748600D01*
X188563892Y-210748600D02*
X188659130Y-210796219D01*
X188659130Y-210796219D02*
X188897225Y-210796219D01*
X188897225Y-210796219D02*
X188992463Y-210748600D01*
X188992463Y-210748600D02*
X189040082Y-210700980D01*
X321008832Y-222496219D02*
X320389785Y-222496219D01*
X320389785Y-222496219D02*
X320723118Y-222877171D01*
X320723118Y-222877171D02*
X320580261Y-222877171D01*
X320580261Y-222877171D02*
X320485023Y-222924790D01*
X320485023Y-222924790D02*
X320437404Y-222972409D01*
X320437404Y-222972409D02*
X320389785Y-223067647D01*
X320389785Y-223067647D02*
X320389785Y-223305742D01*
X320389785Y-223305742D02*
X320437404Y-223400980D01*
X320437404Y-223400980D02*
X320485023Y-223448600D01*
X320485023Y-223448600D02*
X320580261Y-223496219D01*
X320580261Y-223496219D02*
X320865975Y-223496219D01*
X320865975Y-223496219D02*
X320961213Y-223448600D01*
X320961213Y-223448600D02*
X321008832Y-223400980D01*
X358489785Y-223496219D02*
X359061213Y-223496219D01*
X358775499Y-223496219D02*
X358775499Y-222496219D01*
X358775499Y-222496219D02*
X358870737Y-222639076D01*
X358870737Y-222639076D02*
X358965975Y-222734314D01*
X358965975Y-222734314D02*
X359061213Y-222781933D01*
X230378476Y-213177469D02*
X230949904Y-213177469D01*
X230664190Y-213177469D02*
X230664190Y-212177469D01*
X230664190Y-212177469D02*
X230759428Y-212320326D01*
X230759428Y-212320326D02*
X230854666Y-212415564D01*
X230854666Y-212415564D02*
X230949904Y-212463183D01*
X229759428Y-212177469D02*
X229664190Y-212177469D01*
X229664190Y-212177469D02*
X229568952Y-212225088D01*
X229568952Y-212225088D02*
X229521333Y-212272707D01*
X229521333Y-212272707D02*
X229473714Y-212367945D01*
X229473714Y-212367945D02*
X229426095Y-212558421D01*
X229426095Y-212558421D02*
X229426095Y-212796516D01*
X229426095Y-212796516D02*
X229473714Y-212986992D01*
X229473714Y-212986992D02*
X229521333Y-213082230D01*
X229521333Y-213082230D02*
X229568952Y-213129850D01*
X229568952Y-213129850D02*
X229664190Y-213177469D01*
X229664190Y-213177469D02*
X229759428Y-213177469D01*
X229759428Y-213177469D02*
X229854666Y-213129850D01*
X229854666Y-213129850D02*
X229902285Y-213082230D01*
X229902285Y-213082230D02*
X229949904Y-212986992D01*
X229949904Y-212986992D02*
X229997523Y-212796516D01*
X229997523Y-212796516D02*
X229997523Y-212558421D01*
X229997523Y-212558421D02*
X229949904Y-212367945D01*
X229949904Y-212367945D02*
X229902285Y-212272707D01*
X229902285Y-212272707D02*
X229854666Y-212225088D01*
X229854666Y-212225088D02*
X229759428Y-212177469D01*
X188217993Y-227464969D02*
X188217993Y-226464969D01*
X188217993Y-227417350D02*
X188313231Y-227464969D01*
X188313231Y-227464969D02*
X188503707Y-227464969D01*
X188503707Y-227464969D02*
X188598945Y-227417350D01*
X188598945Y-227417350D02*
X188646564Y-227369730D01*
X188646564Y-227369730D02*
X188694183Y-227274492D01*
X188694183Y-227274492D02*
X188694183Y-226988778D01*
X188694183Y-226988778D02*
X188646564Y-226893540D01*
X188646564Y-226893540D02*
X188598945Y-226845921D01*
X188598945Y-226845921D02*
X188503707Y-226798302D01*
X188503707Y-226798302D02*
X188313231Y-226798302D01*
X188313231Y-226798302D02*
X188217993Y-226845921D01*
X187360850Y-227417350D02*
X187456088Y-227464969D01*
X187456088Y-227464969D02*
X187646564Y-227464969D01*
X187646564Y-227464969D02*
X187741802Y-227417350D01*
X187741802Y-227417350D02*
X187789421Y-227322111D01*
X187789421Y-227322111D02*
X187789421Y-226941159D01*
X187789421Y-226941159D02*
X187741802Y-226845921D01*
X187741802Y-226845921D02*
X187646564Y-226798302D01*
X187646564Y-226798302D02*
X187456088Y-226798302D01*
X187456088Y-226798302D02*
X187360850Y-226845921D01*
X187360850Y-226845921D02*
X187313231Y-226941159D01*
X187313231Y-226941159D02*
X187313231Y-227036397D01*
X187313231Y-227036397D02*
X187789421Y-227131635D01*
X186932278Y-227417350D02*
X186837040Y-227464969D01*
X186837040Y-227464969D02*
X186646564Y-227464969D01*
X186646564Y-227464969D02*
X186551326Y-227417350D01*
X186551326Y-227417350D02*
X186503707Y-227322111D01*
X186503707Y-227322111D02*
X186503707Y-227274492D01*
X186503707Y-227274492D02*
X186551326Y-227179254D01*
X186551326Y-227179254D02*
X186646564Y-227131635D01*
X186646564Y-227131635D02*
X186789421Y-227131635D01*
X186789421Y-227131635D02*
X186884659Y-227084016D01*
X186884659Y-227084016D02*
X186932278Y-226988778D01*
X186932278Y-226988778D02*
X186932278Y-226941159D01*
X186932278Y-226941159D02*
X186884659Y-226845921D01*
X186884659Y-226845921D02*
X186789421Y-226798302D01*
X186789421Y-226798302D02*
X186646564Y-226798302D01*
X186646564Y-226798302D02*
X186551326Y-226845921D01*
X186075135Y-227464969D02*
X186075135Y-226798302D01*
X186075135Y-226464969D02*
X186122754Y-226512588D01*
X186122754Y-226512588D02*
X186075135Y-226560207D01*
X186075135Y-226560207D02*
X186027516Y-226512588D01*
X186027516Y-226512588D02*
X186075135Y-226464969D01*
X186075135Y-226464969D02*
X186075135Y-226560207D01*
X185170374Y-226798302D02*
X185170374Y-227607826D01*
X185170374Y-227607826D02*
X185217993Y-227703064D01*
X185217993Y-227703064D02*
X185265612Y-227750683D01*
X185265612Y-227750683D02*
X185360850Y-227798302D01*
X185360850Y-227798302D02*
X185503707Y-227798302D01*
X185503707Y-227798302D02*
X185598945Y-227750683D01*
X185170374Y-227417350D02*
X185265612Y-227464969D01*
X185265612Y-227464969D02*
X185456088Y-227464969D01*
X185456088Y-227464969D02*
X185551326Y-227417350D01*
X185551326Y-227417350D02*
X185598945Y-227369730D01*
X185598945Y-227369730D02*
X185646564Y-227274492D01*
X185646564Y-227274492D02*
X185646564Y-226988778D01*
X185646564Y-226988778D02*
X185598945Y-226893540D01*
X185598945Y-226893540D02*
X185551326Y-226845921D01*
X185551326Y-226845921D02*
X185456088Y-226798302D01*
X185456088Y-226798302D02*
X185265612Y-226798302D01*
X185265612Y-226798302D02*
X185170374Y-226845921D01*
X184694183Y-226798302D02*
X184694183Y-227464969D01*
X184694183Y-226893540D02*
X184646564Y-226845921D01*
X184646564Y-226845921D02*
X184551326Y-226798302D01*
X184551326Y-226798302D02*
X184408469Y-226798302D01*
X184408469Y-226798302D02*
X184313231Y-226845921D01*
X184313231Y-226845921D02*
X184265612Y-226941159D01*
X184265612Y-226941159D02*
X184265612Y-227464969D01*
X183027516Y-227464969D02*
X183027516Y-226464969D01*
X183027516Y-226845921D02*
X182932278Y-226798302D01*
X182932278Y-226798302D02*
X182741802Y-226798302D01*
X182741802Y-226798302D02*
X182646564Y-226845921D01*
X182646564Y-226845921D02*
X182598945Y-226893540D01*
X182598945Y-226893540D02*
X182551326Y-226988778D01*
X182551326Y-226988778D02*
X182551326Y-227274492D01*
X182551326Y-227274492D02*
X182598945Y-227369730D01*
X182598945Y-227369730D02*
X182646564Y-227417350D01*
X182646564Y-227417350D02*
X182741802Y-227464969D01*
X182741802Y-227464969D02*
X182932278Y-227464969D01*
X182932278Y-227464969D02*
X183027516Y-227417350D01*
X182217992Y-226798302D02*
X181979897Y-227464969D01*
X181741802Y-226798302D02*
X181979897Y-227464969D01*
X181979897Y-227464969D02*
X182075135Y-227703064D01*
X182075135Y-227703064D02*
X182122754Y-227750683D01*
X182122754Y-227750683D02*
X182217992Y-227798302D01*
X375126392Y-182014969D02*
X375126392Y-182729254D01*
X375126392Y-182729254D02*
X375174011Y-182872111D01*
X375174011Y-182872111D02*
X375269249Y-182967350D01*
X375269249Y-182967350D02*
X375412106Y-183014969D01*
X375412106Y-183014969D02*
X375507344Y-183014969D01*
X374697820Y-182967350D02*
X374554963Y-183014969D01*
X374554963Y-183014969D02*
X374316868Y-183014969D01*
X374316868Y-183014969D02*
X374221630Y-182967350D01*
X374221630Y-182967350D02*
X374174011Y-182919730D01*
X374174011Y-182919730D02*
X374126392Y-182824492D01*
X374126392Y-182824492D02*
X374126392Y-182729254D01*
X374126392Y-182729254D02*
X374174011Y-182634016D01*
X374174011Y-182634016D02*
X374221630Y-182586397D01*
X374221630Y-182586397D02*
X374316868Y-182538778D01*
X374316868Y-182538778D02*
X374507344Y-182491159D01*
X374507344Y-182491159D02*
X374602582Y-182443540D01*
X374602582Y-182443540D02*
X374650201Y-182395921D01*
X374650201Y-182395921D02*
X374697820Y-182300683D01*
X374697820Y-182300683D02*
X374697820Y-182205445D01*
X374697820Y-182205445D02*
X374650201Y-182110207D01*
X374650201Y-182110207D02*
X374602582Y-182062588D01*
X374602582Y-182062588D02*
X374507344Y-182014969D01*
X374507344Y-182014969D02*
X374269249Y-182014969D01*
X374269249Y-182014969D02*
X374126392Y-182062588D01*
X373840677Y-182014969D02*
X373269249Y-182014969D01*
X373554963Y-183014969D02*
X373554963Y-182014969D01*
X372221630Y-181967350D02*
X373078772Y-183253064D01*
X371888296Y-183014969D02*
X371888296Y-182014969D01*
X371888296Y-182014969D02*
X371507344Y-182014969D01*
X371507344Y-182014969D02*
X371412106Y-182062588D01*
X371412106Y-182062588D02*
X371364487Y-182110207D01*
X371364487Y-182110207D02*
X371316868Y-182205445D01*
X371316868Y-182205445D02*
X371316868Y-182348302D01*
X371316868Y-182348302D02*
X371364487Y-182443540D01*
X371364487Y-182443540D02*
X371412106Y-182491159D01*
X371412106Y-182491159D02*
X371507344Y-182538778D01*
X371507344Y-182538778D02*
X371888296Y-182538778D01*
X370888296Y-183014969D02*
X370888296Y-182348302D01*
X370888296Y-182014969D02*
X370935915Y-182062588D01*
X370935915Y-182062588D02*
X370888296Y-182110207D01*
X370888296Y-182110207D02*
X370840677Y-182062588D01*
X370840677Y-182062588D02*
X370888296Y-182014969D01*
X370888296Y-182014969D02*
X370888296Y-182110207D01*
X369983535Y-182967350D02*
X370078773Y-183014969D01*
X370078773Y-183014969D02*
X370269249Y-183014969D01*
X370269249Y-183014969D02*
X370364487Y-182967350D01*
X370364487Y-182967350D02*
X370412106Y-182919730D01*
X370412106Y-182919730D02*
X370459725Y-182824492D01*
X370459725Y-182824492D02*
X370459725Y-182538778D01*
X370459725Y-182538778D02*
X370412106Y-182443540D01*
X370412106Y-182443540D02*
X370364487Y-182395921D01*
X370364487Y-182395921D02*
X370269249Y-182348302D01*
X370269249Y-182348302D02*
X370078773Y-182348302D01*
X370078773Y-182348302D02*
X369983535Y-182395921D01*
X369412106Y-183014969D02*
X369507344Y-182967350D01*
X369507344Y-182967350D02*
X369554963Y-182919730D01*
X369554963Y-182919730D02*
X369602582Y-182824492D01*
X369602582Y-182824492D02*
X369602582Y-182538778D01*
X369602582Y-182538778D02*
X369554963Y-182443540D01*
X369554963Y-182443540D02*
X369507344Y-182395921D01*
X369507344Y-182395921D02*
X369412106Y-182348302D01*
X369412106Y-182348302D02*
X369269249Y-182348302D01*
X369269249Y-182348302D02*
X369174011Y-182395921D01*
X369174011Y-182395921D02*
X369126392Y-182443540D01*
X369126392Y-182443540D02*
X369078773Y-182538778D01*
X369078773Y-182538778D02*
X369078773Y-182824492D01*
X369078773Y-182824492D02*
X369126392Y-182919730D01*
X369126392Y-182919730D02*
X369174011Y-182967350D01*
X369174011Y-182967350D02*
X369269249Y-183014969D01*
X369269249Y-183014969D02*
X369412106Y-183014969D01*
X407011511Y-193333719D02*
X407011511Y-192333719D01*
X407011511Y-192714671D02*
X406916273Y-192667052D01*
X406916273Y-192667052D02*
X406725797Y-192667052D01*
X406725797Y-192667052D02*
X406630559Y-192714671D01*
X406630559Y-192714671D02*
X406582940Y-192762290D01*
X406582940Y-192762290D02*
X406535321Y-192857528D01*
X406535321Y-192857528D02*
X406535321Y-193143242D01*
X406535321Y-193143242D02*
X406582940Y-193238480D01*
X406582940Y-193238480D02*
X406630559Y-193286100D01*
X406630559Y-193286100D02*
X406725797Y-193333719D01*
X406725797Y-193333719D02*
X406916273Y-193333719D01*
X406916273Y-193333719D02*
X407011511Y-193286100D01*
X405963892Y-193333719D02*
X406059130Y-193286100D01*
X406059130Y-193286100D02*
X406106749Y-193238480D01*
X406106749Y-193238480D02*
X406154368Y-193143242D01*
X406154368Y-193143242D02*
X406154368Y-192857528D01*
X406154368Y-192857528D02*
X406106749Y-192762290D01*
X406106749Y-192762290D02*
X406059130Y-192714671D01*
X406059130Y-192714671D02*
X405963892Y-192667052D01*
X405963892Y-192667052D02*
X405821035Y-192667052D01*
X405821035Y-192667052D02*
X405725797Y-192714671D01*
X405725797Y-192714671D02*
X405678178Y-192762290D01*
X405678178Y-192762290D02*
X405630559Y-192857528D01*
X405630559Y-192857528D02*
X405630559Y-193143242D01*
X405630559Y-193143242D02*
X405678178Y-193238480D01*
X405678178Y-193238480D02*
X405725797Y-193286100D01*
X405725797Y-193286100D02*
X405821035Y-193333719D01*
X405821035Y-193333719D02*
X405963892Y-193333719D01*
X405059130Y-193333719D02*
X405154368Y-193286100D01*
X405154368Y-193286100D02*
X405201987Y-193238480D01*
X405201987Y-193238480D02*
X405249606Y-193143242D01*
X405249606Y-193143242D02*
X405249606Y-192857528D01*
X405249606Y-192857528D02*
X405201987Y-192762290D01*
X405201987Y-192762290D02*
X405154368Y-192714671D01*
X405154368Y-192714671D02*
X405059130Y-192667052D01*
X405059130Y-192667052D02*
X404916273Y-192667052D01*
X404916273Y-192667052D02*
X404821035Y-192714671D01*
X404821035Y-192714671D02*
X404773416Y-192762290D01*
X404773416Y-192762290D02*
X404725797Y-192857528D01*
X404725797Y-192857528D02*
X404725797Y-193143242D01*
X404725797Y-193143242D02*
X404773416Y-193238480D01*
X404773416Y-193238480D02*
X404821035Y-193286100D01*
X404821035Y-193286100D02*
X404916273Y-193333719D01*
X404916273Y-193333719D02*
X405059130Y-193333719D01*
X404440082Y-192667052D02*
X404059130Y-192667052D01*
X404297225Y-192333719D02*
X404297225Y-193190861D01*
X404297225Y-193190861D02*
X404249606Y-193286100D01*
X404249606Y-193286100D02*
X404154368Y-193333719D01*
X404154368Y-193333719D02*
X404059130Y-193333719D01*
X311245737Y-214987290D02*
X311340975Y-214939671D01*
X311340975Y-214939671D02*
X311388594Y-214892052D01*
X311388594Y-214892052D02*
X311436213Y-214796814D01*
X311436213Y-214796814D02*
X311436213Y-214749195D01*
X311436213Y-214749195D02*
X311388594Y-214653957D01*
X311388594Y-214653957D02*
X311340975Y-214606338D01*
X311340975Y-214606338D02*
X311245737Y-214558719D01*
X311245737Y-214558719D02*
X311055261Y-214558719D01*
X311055261Y-214558719D02*
X310960023Y-214606338D01*
X310960023Y-214606338D02*
X310912404Y-214653957D01*
X310912404Y-214653957D02*
X310864785Y-214749195D01*
X310864785Y-214749195D02*
X310864785Y-214796814D01*
X310864785Y-214796814D02*
X310912404Y-214892052D01*
X310912404Y-214892052D02*
X310960023Y-214939671D01*
X310960023Y-214939671D02*
X311055261Y-214987290D01*
X311055261Y-214987290D02*
X311245737Y-214987290D01*
X311245737Y-214987290D02*
X311340975Y-215034909D01*
X311340975Y-215034909D02*
X311388594Y-215082528D01*
X311388594Y-215082528D02*
X311436213Y-215177766D01*
X311436213Y-215177766D02*
X311436213Y-215368242D01*
X311436213Y-215368242D02*
X311388594Y-215463480D01*
X311388594Y-215463480D02*
X311340975Y-215511100D01*
X311340975Y-215511100D02*
X311245737Y-215558719D01*
X311245737Y-215558719D02*
X311055261Y-215558719D01*
X311055261Y-215558719D02*
X310960023Y-215511100D01*
X310960023Y-215511100D02*
X310912404Y-215463480D01*
X310912404Y-215463480D02*
X310864785Y-215368242D01*
X310864785Y-215368242D02*
X310864785Y-215177766D01*
X310864785Y-215177766D02*
X310912404Y-215082528D01*
X310912404Y-215082528D02*
X310960023Y-215034909D01*
X310960023Y-215034909D02*
X311055261Y-214987290D01*
X226044547Y-215939671D02*
X226092166Y-215892052D01*
X226092166Y-215892052D02*
X226187404Y-215749195D01*
X226187404Y-215749195D02*
X226235023Y-215653957D01*
X226235023Y-215653957D02*
X226282642Y-215511100D01*
X226282642Y-215511100D02*
X226330261Y-215273004D01*
X226330261Y-215273004D02*
X226330261Y-215082528D01*
X226330261Y-215082528D02*
X226282642Y-214844433D01*
X226282642Y-214844433D02*
X226235023Y-214701576D01*
X226235023Y-214701576D02*
X226187404Y-214606338D01*
X226187404Y-214606338D02*
X226092166Y-214463480D01*
X226092166Y-214463480D02*
X226044547Y-214415861D01*
X225520737Y-214987290D02*
X225615975Y-214939671D01*
X225615975Y-214939671D02*
X225663594Y-214892052D01*
X225663594Y-214892052D02*
X225711213Y-214796814D01*
X225711213Y-214796814D02*
X225711213Y-214749195D01*
X225711213Y-214749195D02*
X225663594Y-214653957D01*
X225663594Y-214653957D02*
X225615975Y-214606338D01*
X225615975Y-214606338D02*
X225520737Y-214558719D01*
X225520737Y-214558719D02*
X225330261Y-214558719D01*
X225330261Y-214558719D02*
X225235023Y-214606338D01*
X225235023Y-214606338D02*
X225187404Y-214653957D01*
X225187404Y-214653957D02*
X225139785Y-214749195D01*
X225139785Y-214749195D02*
X225139785Y-214796814D01*
X225139785Y-214796814D02*
X225187404Y-214892052D01*
X225187404Y-214892052D02*
X225235023Y-214939671D01*
X225235023Y-214939671D02*
X225330261Y-214987290D01*
X225330261Y-214987290D02*
X225520737Y-214987290D01*
X225520737Y-214987290D02*
X225615975Y-215034909D01*
X225615975Y-215034909D02*
X225663594Y-215082528D01*
X225663594Y-215082528D02*
X225711213Y-215177766D01*
X225711213Y-215177766D02*
X225711213Y-215368242D01*
X225711213Y-215368242D02*
X225663594Y-215463480D01*
X225663594Y-215463480D02*
X225615975Y-215511100D01*
X225615975Y-215511100D02*
X225520737Y-215558719D01*
X225520737Y-215558719D02*
X225330261Y-215558719D01*
X225330261Y-215558719D02*
X225235023Y-215511100D01*
X225235023Y-215511100D02*
X225187404Y-215463480D01*
X225187404Y-215463480D02*
X225139785Y-215368242D01*
X225139785Y-215368242D02*
X225139785Y-215177766D01*
X225139785Y-215177766D02*
X225187404Y-215082528D01*
X225187404Y-215082528D02*
X225235023Y-215034909D01*
X225235023Y-215034909D02*
X225330261Y-214987290D01*
X224806451Y-215939671D02*
X224758832Y-215892052D01*
X224758832Y-215892052D02*
X224663594Y-215749195D01*
X224663594Y-215749195D02*
X224615975Y-215653957D01*
X224615975Y-215653957D02*
X224568356Y-215511100D01*
X224568356Y-215511100D02*
X224520737Y-215273004D01*
X224520737Y-215273004D02*
X224520737Y-215082528D01*
X224520737Y-215082528D02*
X224568356Y-214844433D01*
X224568356Y-214844433D02*
X224615975Y-214701576D01*
X224615975Y-214701576D02*
X224663594Y-214606338D01*
X224663594Y-214606338D02*
X224758832Y-214463480D01*
X224758832Y-214463480D02*
X224806451Y-214415861D01*
X410019844Y-168997409D02*
X409686511Y-168997409D01*
X409543654Y-169521219D02*
X410019844Y-169521219D01*
X410019844Y-169521219D02*
X410019844Y-168521219D01*
X410019844Y-168521219D02*
X409543654Y-168521219D01*
X409115082Y-169521219D02*
X409115082Y-168521219D01*
X409115082Y-168521219D02*
X408543654Y-169521219D01*
X408543654Y-169521219D02*
X408543654Y-168521219D01*
X407496035Y-169425980D02*
X407543654Y-169473600D01*
X407543654Y-169473600D02*
X407686511Y-169521219D01*
X407686511Y-169521219D02*
X407781749Y-169521219D01*
X407781749Y-169521219D02*
X407924606Y-169473600D01*
X407924606Y-169473600D02*
X408019844Y-169378361D01*
X408019844Y-169378361D02*
X408067463Y-169283123D01*
X408067463Y-169283123D02*
X408115082Y-169092647D01*
X408115082Y-169092647D02*
X408115082Y-168949790D01*
X408115082Y-168949790D02*
X408067463Y-168759314D01*
X408067463Y-168759314D02*
X408019844Y-168664076D01*
X408019844Y-168664076D02*
X407924606Y-168568838D01*
X407924606Y-168568838D02*
X407781749Y-168521219D01*
X407781749Y-168521219D02*
X407686511Y-168521219D01*
X407686511Y-168521219D02*
X407543654Y-168568838D01*
X407543654Y-168568838D02*
X407496035Y-168616457D01*
D10*
X398715567Y-226934924D02*
X399119628Y-227338985D01*
X399119628Y-227338985D02*
X399173503Y-227446734D01*
X399173503Y-227446734D02*
X399173503Y-227554484D01*
X399173503Y-227554484D02*
X399119628Y-227662233D01*
X399119628Y-227662233D02*
X399065754Y-227716108D01*
X399820001Y-226961861D02*
X399550627Y-227231235D01*
X399550627Y-227231235D02*
X398984942Y-226665549D01*
X400277937Y-226396175D02*
X400277937Y-226450050D01*
X400277937Y-226450050D02*
X400224062Y-226557800D01*
X400224062Y-226557800D02*
X400170187Y-226611675D01*
X400170187Y-226611675D02*
X400062438Y-226665549D01*
X400062438Y-226665549D02*
X399954688Y-226665549D01*
X399954688Y-226665549D02*
X399873876Y-226638612D01*
X399873876Y-226638612D02*
X399739189Y-226557800D01*
X399739189Y-226557800D02*
X399658377Y-226476988D01*
X399658377Y-226476988D02*
X399577564Y-226342301D01*
X399577564Y-226342301D02*
X399550627Y-226261488D01*
X399550627Y-226261488D02*
X399550627Y-226153739D01*
X399550627Y-226153739D02*
X399604502Y-226045989D01*
X399604502Y-226045989D02*
X399658377Y-225992114D01*
X399658377Y-225992114D02*
X399766126Y-225938240D01*
X399766126Y-225938240D02*
X399820001Y-225938240D01*
X400170187Y-225480304D02*
X400574248Y-225884365D01*
X400574248Y-225884365D02*
X400628123Y-225992114D01*
X400628123Y-225992114D02*
X400628123Y-226099864D01*
X400628123Y-226099864D02*
X400574248Y-226207614D01*
X400574248Y-226207614D02*
X400520373Y-226261488D01*
X401274621Y-225507241D02*
X401005247Y-225776615D01*
X401005247Y-225776615D02*
X400439561Y-225210930D01*
X401732557Y-224941556D02*
X401732557Y-224995431D01*
X401732557Y-224995431D02*
X401678682Y-225103180D01*
X401678682Y-225103180D02*
X401624807Y-225157055D01*
X401624807Y-225157055D02*
X401517057Y-225210930D01*
X401517057Y-225210930D02*
X401409308Y-225210930D01*
X401409308Y-225210930D02*
X401328495Y-225183992D01*
X401328495Y-225183992D02*
X401193808Y-225103180D01*
X401193808Y-225103180D02*
X401112996Y-225022368D01*
X401112996Y-225022368D02*
X401032184Y-224887681D01*
X401032184Y-224887681D02*
X401005247Y-224806869D01*
X401005247Y-224806869D02*
X401005247Y-224699119D01*
X401005247Y-224699119D02*
X401059121Y-224591370D01*
X401059121Y-224591370D02*
X401112996Y-224537495D01*
X401112996Y-224537495D02*
X401220746Y-224483620D01*
X401220746Y-224483620D02*
X401274621Y-224483620D01*
X401624807Y-224025684D02*
X402028868Y-224429745D01*
X402028868Y-224429745D02*
X402082743Y-224537495D01*
X402082743Y-224537495D02*
X402082743Y-224645244D01*
X402082743Y-224645244D02*
X402028868Y-224752994D01*
X402028868Y-224752994D02*
X401974993Y-224806869D01*
X402729240Y-224052621D02*
X402459866Y-224321995D01*
X402459866Y-224321995D02*
X401894181Y-223756310D01*
X403187176Y-223486936D02*
X403187176Y-223540811D01*
X403187176Y-223540811D02*
X403133301Y-223648560D01*
X403133301Y-223648560D02*
X403079427Y-223702435D01*
X403079427Y-223702435D02*
X402971677Y-223756310D01*
X402971677Y-223756310D02*
X402863927Y-223756310D01*
X402863927Y-223756310D02*
X402783115Y-223729373D01*
X402783115Y-223729373D02*
X402648428Y-223648560D01*
X402648428Y-223648560D02*
X402567616Y-223567748D01*
X402567616Y-223567748D02*
X402486804Y-223433061D01*
X402486804Y-223433061D02*
X402459866Y-223352249D01*
X402459866Y-223352249D02*
X402459866Y-223244499D01*
X402459866Y-223244499D02*
X402513741Y-223136750D01*
X402513741Y-223136750D02*
X402567616Y-223082875D01*
X402567616Y-223082875D02*
X402675366Y-223029000D01*
X402675366Y-223029000D02*
X402729240Y-223029000D01*
X403079427Y-222571064D02*
X403483488Y-222975125D01*
X403483488Y-222975125D02*
X403537362Y-223082875D01*
X403537362Y-223082875D02*
X403537362Y-223190625D01*
X403537362Y-223190625D02*
X403483488Y-223298374D01*
X403483488Y-223298374D02*
X403429613Y-223352249D01*
X404183860Y-222598002D02*
X403914486Y-222867376D01*
X403914486Y-222867376D02*
X403348801Y-222301690D01*
X404641796Y-222032316D02*
X404641796Y-222086191D01*
X404641796Y-222086191D02*
X404587921Y-222193941D01*
X404587921Y-222193941D02*
X404534046Y-222247815D01*
X404534046Y-222247815D02*
X404426297Y-222301690D01*
X404426297Y-222301690D02*
X404318547Y-222301690D01*
X404318547Y-222301690D02*
X404237735Y-222274753D01*
X404237735Y-222274753D02*
X404103048Y-222193941D01*
X404103048Y-222193941D02*
X404022236Y-222113128D01*
X404022236Y-222113128D02*
X403941424Y-221978441D01*
X403941424Y-221978441D02*
X403914486Y-221897629D01*
X403914486Y-221897629D02*
X403914486Y-221789880D01*
X403914486Y-221789880D02*
X403968361Y-221682130D01*
X403968361Y-221682130D02*
X404022236Y-221628255D01*
X404022236Y-221628255D02*
X404129985Y-221574380D01*
X404129985Y-221574380D02*
X404183860Y-221574380D01*
D14*
X400177285Y-183125657D02*
X401605857Y-183125657D01*
X401605857Y-183125657D02*
X401605857Y-180125657D01*
X399320143Y-182268514D02*
X397891572Y-182268514D01*
X399605857Y-183125657D02*
X398605857Y-180125657D01*
X398605857Y-180125657D02*
X397605857Y-183125657D01*
X396605857Y-181554228D02*
X395605857Y-181554228D01*
X395177285Y-183125657D02*
X396605857Y-183125657D01*
X396605857Y-183125657D02*
X396605857Y-180125657D01*
X396605857Y-180125657D02*
X395177285Y-180125657D01*
D15*
X304679368Y-198327995D02*
X304679368Y-193327995D01*
X304679368Y-193327995D02*
X302774606Y-193327995D01*
X302774606Y-193327995D02*
X302298416Y-193566090D01*
X302298416Y-193566090D02*
X302060321Y-193804185D01*
X302060321Y-193804185D02*
X301822225Y-194280376D01*
X301822225Y-194280376D02*
X301822225Y-194994661D01*
X301822225Y-194994661D02*
X302060321Y-195470852D01*
X302060321Y-195470852D02*
X302298416Y-195708947D01*
X302298416Y-195708947D02*
X302774606Y-195947042D01*
X302774606Y-195947042D02*
X304679368Y-195947042D01*
X298965083Y-198327995D02*
X299441273Y-198089900D01*
X299441273Y-198089900D02*
X299679368Y-197851804D01*
X299679368Y-197851804D02*
X299917464Y-197375614D01*
X299917464Y-197375614D02*
X299917464Y-195947042D01*
X299917464Y-195947042D02*
X299679368Y-195470852D01*
X299679368Y-195470852D02*
X299441273Y-195232757D01*
X299441273Y-195232757D02*
X298965083Y-194994661D01*
X298965083Y-194994661D02*
X298250797Y-194994661D01*
X298250797Y-194994661D02*
X297774606Y-195232757D01*
X297774606Y-195232757D02*
X297536511Y-195470852D01*
X297536511Y-195470852D02*
X297298416Y-195947042D01*
X297298416Y-195947042D02*
X297298416Y-197375614D01*
X297298416Y-197375614D02*
X297536511Y-197851804D01*
X297536511Y-197851804D02*
X297774606Y-198089900D01*
X297774606Y-198089900D02*
X298250797Y-198327995D01*
X298250797Y-198327995D02*
X298965083Y-198327995D01*
X295631749Y-194994661D02*
X294679368Y-198327995D01*
X294679368Y-198327995D02*
X293726987Y-195947042D01*
X293726987Y-195947042D02*
X292774606Y-198327995D01*
X292774606Y-198327995D02*
X291822225Y-194994661D01*
X288012701Y-198089900D02*
X288488892Y-198327995D01*
X288488892Y-198327995D02*
X289441273Y-198327995D01*
X289441273Y-198327995D02*
X289917463Y-198089900D01*
X289917463Y-198089900D02*
X290155559Y-197613709D01*
X290155559Y-197613709D02*
X290155559Y-195708947D01*
X290155559Y-195708947D02*
X289917463Y-195232757D01*
X289917463Y-195232757D02*
X289441273Y-194994661D01*
X289441273Y-194994661D02*
X288488892Y-194994661D01*
X288488892Y-194994661D02*
X288012701Y-195232757D01*
X288012701Y-195232757D02*
X287774606Y-195708947D01*
X287774606Y-195708947D02*
X287774606Y-196185138D01*
X287774606Y-196185138D02*
X290155559Y-196661328D01*
X285631749Y-198327995D02*
X285631749Y-194994661D01*
X285631749Y-195947042D02*
X285393654Y-195470852D01*
X285393654Y-195470852D02*
X285155559Y-195232757D01*
X285155559Y-195232757D02*
X284679368Y-194994661D01*
X284679368Y-194994661D02*
X284203178Y-194994661D01*
X283250797Y-193327995D02*
X281584130Y-198327995D01*
X281584130Y-198327995D02*
X279917464Y-193327995D01*
X276107940Y-198327995D02*
X276107940Y-195708947D01*
X276107940Y-195708947D02*
X276346035Y-195232757D01*
X276346035Y-195232757D02*
X276822226Y-194994661D01*
X276822226Y-194994661D02*
X277774607Y-194994661D01*
X277774607Y-194994661D02*
X278250797Y-195232757D01*
X276107940Y-198089900D02*
X276584131Y-198327995D01*
X276584131Y-198327995D02*
X277774607Y-198327995D01*
X277774607Y-198327995D02*
X278250797Y-198089900D01*
X278250797Y-198089900D02*
X278488893Y-197613709D01*
X278488893Y-197613709D02*
X278488893Y-197137519D01*
X278488893Y-197137519D02*
X278250797Y-196661328D01*
X278250797Y-196661328D02*
X277774607Y-196423233D01*
X277774607Y-196423233D02*
X276584131Y-196423233D01*
X276584131Y-196423233D02*
X276107940Y-196185138D01*
X273726987Y-194994661D02*
X273726987Y-198327995D01*
X273726987Y-195470852D02*
X273488892Y-195232757D01*
X273488892Y-195232757D02*
X273012702Y-194994661D01*
X273012702Y-194994661D02*
X272298416Y-194994661D01*
X272298416Y-194994661D02*
X271822225Y-195232757D01*
X271822225Y-195232757D02*
X271584130Y-195708947D01*
X271584130Y-195708947D02*
X271584130Y-198327995D01*
D12*
X354203476Y-213177469D02*
X354774904Y-213177469D01*
X354489190Y-213177469D02*
X354489190Y-212177469D01*
X354489190Y-212177469D02*
X354584428Y-212320326D01*
X354584428Y-212320326D02*
X354679666Y-212415564D01*
X354679666Y-212415564D02*
X354774904Y-212463183D01*
X353584428Y-212177469D02*
X353489190Y-212177469D01*
X353489190Y-212177469D02*
X353393952Y-212225088D01*
X353393952Y-212225088D02*
X353346333Y-212272707D01*
X353346333Y-212272707D02*
X353298714Y-212367945D01*
X353298714Y-212367945D02*
X353251095Y-212558421D01*
X353251095Y-212558421D02*
X353251095Y-212796516D01*
X353251095Y-212796516D02*
X353298714Y-212986992D01*
X353298714Y-212986992D02*
X353346333Y-213082230D01*
X353346333Y-213082230D02*
X353393952Y-213129850D01*
X353393952Y-213129850D02*
X353489190Y-213177469D01*
X353489190Y-213177469D02*
X353584428Y-213177469D01*
X353584428Y-213177469D02*
X353679666Y-213129850D01*
X353679666Y-213129850D02*
X353727285Y-213082230D01*
X353727285Y-213082230D02*
X353774904Y-212986992D01*
X353774904Y-212986992D02*
X353822523Y-212796516D01*
X353822523Y-212796516D02*
X353822523Y-212558421D01*
X353822523Y-212558421D02*
X353774904Y-212367945D01*
X353774904Y-212367945D02*
X353727285Y-212272707D01*
X353727285Y-212272707D02*
X353679666Y-212225088D01*
X353679666Y-212225088D02*
X353584428Y-212177469D01*
X235569547Y-215939671D02*
X235617166Y-215892052D01*
X235617166Y-215892052D02*
X235712404Y-215749195D01*
X235712404Y-215749195D02*
X235760023Y-215653957D01*
X235760023Y-215653957D02*
X235807642Y-215511100D01*
X235807642Y-215511100D02*
X235855261Y-215273004D01*
X235855261Y-215273004D02*
X235855261Y-215082528D01*
X235855261Y-215082528D02*
X235807642Y-214844433D01*
X235807642Y-214844433D02*
X235760023Y-214701576D01*
X235760023Y-214701576D02*
X235712404Y-214606338D01*
X235712404Y-214606338D02*
X235617166Y-214463480D01*
X235617166Y-214463480D02*
X235569547Y-214415861D01*
X235283832Y-214558719D02*
X234617166Y-214558719D01*
X234617166Y-214558719D02*
X235045737Y-215558719D01*
X234331451Y-215939671D02*
X234283832Y-215892052D01*
X234283832Y-215892052D02*
X234188594Y-215749195D01*
X234188594Y-215749195D02*
X234140975Y-215653957D01*
X234140975Y-215653957D02*
X234093356Y-215511100D01*
X234093356Y-215511100D02*
X234045737Y-215273004D01*
X234045737Y-215273004D02*
X234045737Y-215082528D01*
X234045737Y-215082528D02*
X234093356Y-214844433D01*
X234093356Y-214844433D02*
X234140975Y-214701576D01*
X234140975Y-214701576D02*
X234188594Y-214606338D01*
X234188594Y-214606338D02*
X234283832Y-214463480D01*
X234283832Y-214463480D02*
X234331451Y-214415861D01*
X185610916Y-191746219D02*
X186182344Y-191746219D01*
X185896630Y-191746219D02*
X185896630Y-190746219D01*
X185896630Y-190746219D02*
X185991868Y-190889076D01*
X185991868Y-190889076D02*
X186087106Y-190984314D01*
X186087106Y-190984314D02*
X186182344Y-191031933D01*
X185229963Y-190841457D02*
X185182344Y-190793838D01*
X185182344Y-190793838D02*
X185087106Y-190746219D01*
X185087106Y-190746219D02*
X184849011Y-190746219D01*
X184849011Y-190746219D02*
X184753773Y-190793838D01*
X184753773Y-190793838D02*
X184706154Y-190841457D01*
X184706154Y-190841457D02*
X184658535Y-190936695D01*
X184658535Y-190936695D02*
X184658535Y-191031933D01*
X184658535Y-191031933D02*
X184706154Y-191174790D01*
X184706154Y-191174790D02*
X185277582Y-191746219D01*
X185277582Y-191746219D02*
X184658535Y-191746219D01*
X183753773Y-190746219D02*
X184229963Y-190746219D01*
X184229963Y-190746219D02*
X184277582Y-191222409D01*
X184277582Y-191222409D02*
X184229963Y-191174790D01*
X184229963Y-191174790D02*
X184134725Y-191127171D01*
X184134725Y-191127171D02*
X183896630Y-191127171D01*
X183896630Y-191127171D02*
X183801392Y-191174790D01*
X183801392Y-191174790D02*
X183753773Y-191222409D01*
X183753773Y-191222409D02*
X183706154Y-191317647D01*
X183706154Y-191317647D02*
X183706154Y-191555742D01*
X183706154Y-191555742D02*
X183753773Y-191650980D01*
X183753773Y-191650980D02*
X183801392Y-191698600D01*
X183801392Y-191698600D02*
X183896630Y-191746219D01*
X183896630Y-191746219D02*
X184134725Y-191746219D01*
X184134725Y-191746219D02*
X184229963Y-191698600D01*
X184229963Y-191698600D02*
X184277582Y-191650980D01*
X402304666Y-185396219D02*
X402876094Y-185396219D01*
X402590380Y-185396219D02*
X402590380Y-184396219D01*
X402590380Y-184396219D02*
X402685618Y-184539076D01*
X402685618Y-184539076D02*
X402780856Y-184634314D01*
X402780856Y-184634314D02*
X402876094Y-184681933D01*
X401399904Y-184396219D02*
X401876094Y-184396219D01*
X401876094Y-184396219D02*
X401923713Y-184872409D01*
X401923713Y-184872409D02*
X401876094Y-184824790D01*
X401876094Y-184824790D02*
X401780856Y-184777171D01*
X401780856Y-184777171D02*
X401542761Y-184777171D01*
X401542761Y-184777171D02*
X401447523Y-184824790D01*
X401447523Y-184824790D02*
X401399904Y-184872409D01*
X401399904Y-184872409D02*
X401352285Y-184967647D01*
X401352285Y-184967647D02*
X401352285Y-185205742D01*
X401352285Y-185205742D02*
X401399904Y-185300980D01*
X401399904Y-185300980D02*
X401447523Y-185348600D01*
X401447523Y-185348600D02*
X401542761Y-185396219D01*
X401542761Y-185396219D02*
X401780856Y-185396219D01*
X401780856Y-185396219D02*
X401876094Y-185348600D01*
X401876094Y-185348600D02*
X401923713Y-185300980D01*
X400733237Y-184396219D02*
X400637999Y-184396219D01*
X400637999Y-184396219D02*
X400542761Y-184443838D01*
X400542761Y-184443838D02*
X400495142Y-184491457D01*
X400495142Y-184491457D02*
X400447523Y-184586695D01*
X400447523Y-184586695D02*
X400399904Y-184777171D01*
X400399904Y-184777171D02*
X400399904Y-185015266D01*
X400399904Y-185015266D02*
X400447523Y-185205742D01*
X400447523Y-185205742D02*
X400495142Y-185300980D01*
X400495142Y-185300980D02*
X400542761Y-185348600D01*
X400542761Y-185348600D02*
X400637999Y-185396219D01*
X400637999Y-185396219D02*
X400733237Y-185396219D01*
X400733237Y-185396219D02*
X400828475Y-185348600D01*
X400828475Y-185348600D02*
X400876094Y-185300980D01*
X400876094Y-185300980D02*
X400923713Y-185205742D01*
X400923713Y-185205742D02*
X400971332Y-185015266D01*
X400971332Y-185015266D02*
X400971332Y-184777171D01*
X400971332Y-184777171D02*
X400923713Y-184586695D01*
X400923713Y-184586695D02*
X400876094Y-184491457D01*
X400876094Y-184491457D02*
X400828475Y-184443838D01*
X400828475Y-184443838D02*
X400733237Y-184396219D01*
X193122757Y-222654850D02*
X193217995Y-222702469D01*
X193217995Y-222702469D02*
X193408471Y-222702469D01*
X193408471Y-222702469D02*
X193503709Y-222654850D01*
X193503709Y-222654850D02*
X193551328Y-222607230D01*
X193551328Y-222607230D02*
X193598947Y-222511992D01*
X193598947Y-222511992D02*
X193598947Y-222226278D01*
X193598947Y-222226278D02*
X193551328Y-222131040D01*
X193551328Y-222131040D02*
X193503709Y-222083421D01*
X193503709Y-222083421D02*
X193408471Y-222035802D01*
X193408471Y-222035802D02*
X193217995Y-222035802D01*
X193217995Y-222035802D02*
X193122757Y-222083421D01*
X192551328Y-222702469D02*
X192646566Y-222654850D01*
X192646566Y-222654850D02*
X192694185Y-222607230D01*
X192694185Y-222607230D02*
X192741804Y-222511992D01*
X192741804Y-222511992D02*
X192741804Y-222226278D01*
X192741804Y-222226278D02*
X192694185Y-222131040D01*
X192694185Y-222131040D02*
X192646566Y-222083421D01*
X192646566Y-222083421D02*
X192551328Y-222035802D01*
X192551328Y-222035802D02*
X192408471Y-222035802D01*
X192408471Y-222035802D02*
X192313233Y-222083421D01*
X192313233Y-222083421D02*
X192265614Y-222131040D01*
X192265614Y-222131040D02*
X192217995Y-222226278D01*
X192217995Y-222226278D02*
X192217995Y-222511992D01*
X192217995Y-222511992D02*
X192265614Y-222607230D01*
X192265614Y-222607230D02*
X192313233Y-222654850D01*
X192313233Y-222654850D02*
X192408471Y-222702469D01*
X192408471Y-222702469D02*
X192551328Y-222702469D01*
X191789423Y-222035802D02*
X191789423Y-222702469D01*
X191789423Y-222131040D02*
X191741804Y-222083421D01*
X191741804Y-222083421D02*
X191646566Y-222035802D01*
X191646566Y-222035802D02*
X191503709Y-222035802D01*
X191503709Y-222035802D02*
X191408471Y-222083421D01*
X191408471Y-222083421D02*
X191360852Y-222178659D01*
X191360852Y-222178659D02*
X191360852Y-222702469D01*
X190456090Y-222654850D02*
X190551328Y-222702469D01*
X190551328Y-222702469D02*
X190741804Y-222702469D01*
X190741804Y-222702469D02*
X190837042Y-222654850D01*
X190837042Y-222654850D02*
X190884661Y-222607230D01*
X190884661Y-222607230D02*
X190932280Y-222511992D01*
X190932280Y-222511992D02*
X190932280Y-222226278D01*
X190932280Y-222226278D02*
X190884661Y-222131040D01*
X190884661Y-222131040D02*
X190837042Y-222083421D01*
X190837042Y-222083421D02*
X190741804Y-222035802D01*
X190741804Y-222035802D02*
X190551328Y-222035802D01*
X190551328Y-222035802D02*
X190456090Y-222083421D01*
X189646566Y-222654850D02*
X189741804Y-222702469D01*
X189741804Y-222702469D02*
X189932280Y-222702469D01*
X189932280Y-222702469D02*
X190027518Y-222654850D01*
X190027518Y-222654850D02*
X190075137Y-222559611D01*
X190075137Y-222559611D02*
X190075137Y-222178659D01*
X190075137Y-222178659D02*
X190027518Y-222083421D01*
X190027518Y-222083421D02*
X189932280Y-222035802D01*
X189932280Y-222035802D02*
X189741804Y-222035802D01*
X189741804Y-222035802D02*
X189646566Y-222083421D01*
X189646566Y-222083421D02*
X189598947Y-222178659D01*
X189598947Y-222178659D02*
X189598947Y-222273897D01*
X189598947Y-222273897D02*
X190075137Y-222369135D01*
X189170375Y-222035802D02*
X189170375Y-223035802D01*
X189170375Y-222083421D02*
X189075137Y-222035802D01*
X189075137Y-222035802D02*
X188884661Y-222035802D01*
X188884661Y-222035802D02*
X188789423Y-222083421D01*
X188789423Y-222083421D02*
X188741804Y-222131040D01*
X188741804Y-222131040D02*
X188694185Y-222226278D01*
X188694185Y-222226278D02*
X188694185Y-222511992D01*
X188694185Y-222511992D02*
X188741804Y-222607230D01*
X188741804Y-222607230D02*
X188789423Y-222654850D01*
X188789423Y-222654850D02*
X188884661Y-222702469D01*
X188884661Y-222702469D02*
X189075137Y-222702469D01*
X189075137Y-222702469D02*
X189170375Y-222654850D01*
X188408470Y-222035802D02*
X188027518Y-222035802D01*
X188265613Y-221702469D02*
X188265613Y-222559611D01*
X188265613Y-222559611D02*
X188217994Y-222654850D01*
X188217994Y-222654850D02*
X188122756Y-222702469D01*
X188122756Y-222702469D02*
X188027518Y-222702469D01*
X186932279Y-222702469D02*
X186932279Y-221702469D01*
X186932279Y-222083421D02*
X186837041Y-222035802D01*
X186837041Y-222035802D02*
X186646565Y-222035802D01*
X186646565Y-222035802D02*
X186551327Y-222083421D01*
X186551327Y-222083421D02*
X186503708Y-222131040D01*
X186503708Y-222131040D02*
X186456089Y-222226278D01*
X186456089Y-222226278D02*
X186456089Y-222511992D01*
X186456089Y-222511992D02*
X186503708Y-222607230D01*
X186503708Y-222607230D02*
X186551327Y-222654850D01*
X186551327Y-222654850D02*
X186646565Y-222702469D01*
X186646565Y-222702469D02*
X186837041Y-222702469D01*
X186837041Y-222702469D02*
X186932279Y-222654850D01*
X186122755Y-222035802D02*
X185884660Y-222702469D01*
X185646565Y-222035802D02*
X185884660Y-222702469D01*
X185884660Y-222702469D02*
X185979898Y-222940564D01*
X185979898Y-222940564D02*
X186027517Y-222988183D01*
X186027517Y-222988183D02*
X186122755Y-223035802D01*
X184551326Y-222654850D02*
X184456088Y-222702469D01*
X184456088Y-222702469D02*
X184265612Y-222702469D01*
X184265612Y-222702469D02*
X184170374Y-222654850D01*
X184170374Y-222654850D02*
X184122755Y-222559611D01*
X184122755Y-222559611D02*
X184122755Y-222511992D01*
X184122755Y-222511992D02*
X184170374Y-222416754D01*
X184170374Y-222416754D02*
X184265612Y-222369135D01*
X184265612Y-222369135D02*
X184408469Y-222369135D01*
X184408469Y-222369135D02*
X184503707Y-222321516D01*
X184503707Y-222321516D02*
X184551326Y-222226278D01*
X184551326Y-222226278D02*
X184551326Y-222178659D01*
X184551326Y-222178659D02*
X184503707Y-222083421D01*
X184503707Y-222083421D02*
X184408469Y-222035802D01*
X184408469Y-222035802D02*
X184265612Y-222035802D01*
X184265612Y-222035802D02*
X184170374Y-222083421D01*
X183789421Y-222035802D02*
X183598945Y-222702469D01*
X183598945Y-222702469D02*
X183408469Y-222226278D01*
X183408469Y-222226278D02*
X183217993Y-222702469D01*
X183217993Y-222702469D02*
X183027517Y-222035802D01*
X182265612Y-222654850D02*
X182360850Y-222702469D01*
X182360850Y-222702469D02*
X182551326Y-222702469D01*
X182551326Y-222702469D02*
X182646564Y-222654850D01*
X182646564Y-222654850D02*
X182694183Y-222559611D01*
X182694183Y-222559611D02*
X182694183Y-222178659D01*
X182694183Y-222178659D02*
X182646564Y-222083421D01*
X182646564Y-222083421D02*
X182551326Y-222035802D01*
X182551326Y-222035802D02*
X182360850Y-222035802D01*
X182360850Y-222035802D02*
X182265612Y-222083421D01*
X182265612Y-222083421D02*
X182217993Y-222178659D01*
X182217993Y-222178659D02*
X182217993Y-222273897D01*
X182217993Y-222273897D02*
X182694183Y-222369135D01*
X181360850Y-222702469D02*
X181360850Y-222178659D01*
X181360850Y-222178659D02*
X181408469Y-222083421D01*
X181408469Y-222083421D02*
X181503707Y-222035802D01*
X181503707Y-222035802D02*
X181694183Y-222035802D01*
X181694183Y-222035802D02*
X181789421Y-222083421D01*
X181360850Y-222654850D02*
X181456088Y-222702469D01*
X181456088Y-222702469D02*
X181694183Y-222702469D01*
X181694183Y-222702469D02*
X181789421Y-222654850D01*
X181789421Y-222654850D02*
X181837040Y-222559611D01*
X181837040Y-222559611D02*
X181837040Y-222464373D01*
X181837040Y-222464373D02*
X181789421Y-222369135D01*
X181789421Y-222369135D02*
X181694183Y-222321516D01*
X181694183Y-222321516D02*
X181456088Y-222321516D01*
X181456088Y-222321516D02*
X181360850Y-222273897D01*
X180884659Y-222702469D02*
X180884659Y-222035802D01*
X180884659Y-222226278D02*
X180837040Y-222131040D01*
X180837040Y-222131040D02*
X180789421Y-222083421D01*
X180789421Y-222083421D02*
X180694183Y-222035802D01*
X180694183Y-222035802D02*
X180598945Y-222035802D01*
X180503707Y-222797707D02*
X179741802Y-222797707D01*
X179598944Y-222035802D02*
X179408468Y-222702469D01*
X179408468Y-222702469D02*
X179217992Y-222226278D01*
X179217992Y-222226278D02*
X179027516Y-222702469D01*
X179027516Y-222702469D02*
X178837040Y-222035802D01*
X178313230Y-222702469D02*
X178408468Y-222654850D01*
X178408468Y-222654850D02*
X178456087Y-222607230D01*
X178456087Y-222607230D02*
X178503706Y-222511992D01*
X178503706Y-222511992D02*
X178503706Y-222226278D01*
X178503706Y-222226278D02*
X178456087Y-222131040D01*
X178456087Y-222131040D02*
X178408468Y-222083421D01*
X178408468Y-222083421D02*
X178313230Y-222035802D01*
X178313230Y-222035802D02*
X178170373Y-222035802D01*
X178170373Y-222035802D02*
X178075135Y-222083421D01*
X178075135Y-222083421D02*
X178027516Y-222131040D01*
X178027516Y-222131040D02*
X177979897Y-222226278D01*
X177979897Y-222226278D02*
X177979897Y-222511992D01*
X177979897Y-222511992D02*
X178027516Y-222607230D01*
X178027516Y-222607230D02*
X178075135Y-222654850D01*
X178075135Y-222654850D02*
X178170373Y-222702469D01*
X178170373Y-222702469D02*
X178313230Y-222702469D01*
X177408468Y-222702469D02*
X177503706Y-222654850D01*
X177503706Y-222654850D02*
X177551325Y-222559611D01*
X177551325Y-222559611D02*
X177551325Y-221702469D01*
X177170372Y-222035802D02*
X176789420Y-222035802D01*
X177027515Y-222702469D02*
X177027515Y-221845326D01*
X177027515Y-221845326D02*
X176979896Y-221750088D01*
X176979896Y-221750088D02*
X176884658Y-221702469D01*
X176884658Y-221702469D02*
X176789420Y-221702469D01*
X225139785Y-223496219D02*
X225711213Y-223496219D01*
X225425499Y-223496219D02*
X225425499Y-222496219D01*
X225425499Y-222496219D02*
X225520737Y-222639076D01*
X225520737Y-222639076D02*
X225615975Y-222734314D01*
X225615975Y-222734314D02*
X225711213Y-222781933D01*
X349869547Y-215939671D02*
X349917166Y-215892052D01*
X349917166Y-215892052D02*
X350012404Y-215749195D01*
X350012404Y-215749195D02*
X350060023Y-215653957D01*
X350060023Y-215653957D02*
X350107642Y-215511100D01*
X350107642Y-215511100D02*
X350155261Y-215273004D01*
X350155261Y-215273004D02*
X350155261Y-215082528D01*
X350155261Y-215082528D02*
X350107642Y-214844433D01*
X350107642Y-214844433D02*
X350060023Y-214701576D01*
X350060023Y-214701576D02*
X350012404Y-214606338D01*
X350012404Y-214606338D02*
X349917166Y-214463480D01*
X349917166Y-214463480D02*
X349869547Y-214415861D01*
X349583832Y-214558719D02*
X348917166Y-214558719D01*
X348917166Y-214558719D02*
X349345737Y-215558719D01*
X348631451Y-215939671D02*
X348583832Y-215892052D01*
X348583832Y-215892052D02*
X348488594Y-215749195D01*
X348488594Y-215749195D02*
X348440975Y-215653957D01*
X348440975Y-215653957D02*
X348393356Y-215511100D01*
X348393356Y-215511100D02*
X348345737Y-215273004D01*
X348345737Y-215273004D02*
X348345737Y-215082528D01*
X348345737Y-215082528D02*
X348393356Y-214844433D01*
X348393356Y-214844433D02*
X348440975Y-214701576D01*
X348440975Y-214701576D02*
X348488594Y-214606338D01*
X348488594Y-214606338D02*
X348583832Y-214463480D01*
X348583832Y-214463480D02*
X348631451Y-214415861D01*
X206089785Y-223496219D02*
X206661213Y-223496219D01*
X206375499Y-223496219D02*
X206375499Y-222496219D01*
X206375499Y-222496219D02*
X206470737Y-222639076D01*
X206470737Y-222639076D02*
X206565975Y-222734314D01*
X206565975Y-222734314D02*
X206661213Y-222781933D01*
D16*
X412957000Y-211070000D02*
X412957000Y-207170000D01*
X414957000Y-211070000D02*
X412957000Y-211070000D01*
X414957000Y-211070000D02*
X414957000Y-207170000D01*
X327613000Y-230112000D02*
X327613000Y-226212000D01*
X329613000Y-230112000D02*
X327613000Y-230112000D01*
X329613000Y-230112000D02*
X329613000Y-226212000D01*
X393859500Y-211062000D02*
X393859500Y-207162000D01*
X395859500Y-211062000D02*
X393859500Y-211062000D01*
X395859500Y-211062000D02*
X395859500Y-207162000D01*
X270034500Y-230112000D02*
X270034500Y-226212000D01*
X272034500Y-230112000D02*
X270034500Y-230112000D01*
X272034500Y-230112000D02*
X272034500Y-226212000D01*
X196644250Y-230056500D02*
X196644250Y-226156500D01*
X198644250Y-230056500D02*
X196644250Y-230056500D01*
X198644250Y-230056500D02*
X198644250Y-226156500D01*
X232950500Y-230112000D02*
X232950500Y-226212000D01*
X234950500Y-230112000D02*
X232950500Y-230112000D01*
X234950500Y-230112000D02*
X234950500Y-226212000D01*
X349838000Y-230056500D02*
X349838000Y-226156500D01*
X351838000Y-230056500D02*
X349838000Y-230056500D01*
X351838000Y-230056500D02*
X351838000Y-226156500D01*
X384334500Y-230112000D02*
X384334500Y-226212000D01*
X386334500Y-230112000D02*
X384334500Y-230112000D01*
X386334500Y-230112000D02*
X386334500Y-226212000D01*
X270034500Y-192012000D02*
X270034500Y-188112000D01*
X272034500Y-192012000D02*
X270034500Y-192012000D01*
X272034500Y-192012000D02*
X272034500Y-188112000D01*
X408258000Y-192012000D02*
X408258000Y-188112000D01*
X410258000Y-192012000D02*
X408258000Y-192012000D01*
X410258000Y-192012000D02*
X410258000Y-188112000D01*
X260509500Y-211062000D02*
X260509500Y-207162000D01*
X262509500Y-211062000D02*
X260509500Y-211062000D01*
X262509500Y-211062000D02*
X262509500Y-207162000D01*
X374809500Y-211062000D02*
X374809500Y-207162000D01*
X376809500Y-211062000D02*
X374809500Y-211062000D01*
X376809500Y-211062000D02*
X376809500Y-207162000D01*
X355759500Y-211062000D02*
X355759500Y-207162000D01*
X357759500Y-211062000D02*
X355759500Y-211062000D01*
X357759500Y-211062000D02*
X357759500Y-207162000D01*
X279559500Y-211062000D02*
X279559500Y-207162000D01*
X281559500Y-211062000D02*
X279559500Y-211062000D01*
X281559500Y-211062000D02*
X281559500Y-207162000D01*
X336709500Y-211062000D02*
X336709500Y-207162000D01*
X338709500Y-211062000D02*
X336709500Y-211062000D01*
X338709500Y-211062000D02*
X338709500Y-207162000D01*
X191469000Y-192012000D02*
X191469000Y-188112000D01*
X193469000Y-192012000D02*
X191469000Y-192012000D01*
X193469000Y-192012000D02*
X193469000Y-188112000D01*
X317659500Y-211062000D02*
X317659500Y-207162000D01*
X319659500Y-211062000D02*
X317659500Y-211062000D01*
X319659500Y-211062000D02*
X319659500Y-207162000D01*
X241459500Y-211062000D02*
X241459500Y-207162000D01*
X243459500Y-211062000D02*
X241459500Y-211062000D01*
X243459500Y-211062000D02*
X243459500Y-207162000D01*
X365284500Y-192012000D02*
X365284500Y-188112000D01*
X367284500Y-192012000D02*
X365284500Y-192012000D01*
X367284500Y-192012000D02*
X367284500Y-188112000D01*
X231934500Y-192012000D02*
X231934500Y-188112000D01*
X233934500Y-192012000D02*
X231934500Y-192012000D01*
X233934500Y-192012000D02*
X233934500Y-188112000D01*
X212884500Y-192012000D02*
X212884500Y-188112000D01*
X214884500Y-192012000D02*
X212884500Y-192012000D01*
X214884500Y-192012000D02*
X214884500Y-188112000D01*
X346234500Y-192012000D02*
X346234500Y-188112000D01*
X348234500Y-192012000D02*
X346234500Y-192012000D01*
X348234500Y-192012000D02*
X348234500Y-188112000D01*
X289084500Y-192012000D02*
X289084500Y-188112000D01*
X291084500Y-192012000D02*
X289084500Y-192012000D01*
X291084500Y-192012000D02*
X291084500Y-188112000D01*
X308134500Y-192012000D02*
X308134500Y-188112000D01*
X310134500Y-192012000D02*
X308134500Y-192012000D01*
X310134500Y-192012000D02*
X310134500Y-188112000D01*
X298609500Y-211062000D02*
X298609500Y-207162000D01*
X300609500Y-211062000D02*
X298609500Y-211062000D01*
X300609500Y-211062000D02*
X300609500Y-207162000D01*
X222409500Y-211062000D02*
X222409500Y-207162000D01*
X224409500Y-211062000D02*
X222409500Y-211062000D01*
X224409500Y-211062000D02*
X224409500Y-207162000D01*
X384334500Y-192012000D02*
X384334500Y-188112000D01*
X386334500Y-192012000D02*
X384334500Y-192012000D01*
X386334500Y-192012000D02*
X386334500Y-188112000D01*
X327184500Y-192012000D02*
X327184500Y-188112000D01*
X329184500Y-192012000D02*
X327184500Y-192012000D01*
X329184500Y-192012000D02*
X329184500Y-188112000D01*
X250984500Y-192012000D02*
X250984500Y-188112000D01*
X252984500Y-192012000D02*
X250984500Y-192012000D01*
X252984500Y-192012000D02*
X252984500Y-188112000D01*
X341503750Y-172898500D02*
X341503750Y-168998500D01*
X343503750Y-172898500D02*
X341503750Y-172898500D01*
X343503750Y-172898500D02*
X343503750Y-168998500D01*
X398352000Y-172153000D02*
X398352000Y-176053000D01*
X398352000Y-172153000D02*
X400352000Y-172153000D01*
X400352000Y-172153000D02*
X400352000Y-176053000D01*
X364570000Y-172906500D02*
X364570000Y-169006500D01*
X366570000Y-172906500D02*
X364570000Y-172906500D01*
X366570000Y-172906500D02*
X366570000Y-169006500D01*
X322453750Y-172898500D02*
X322453750Y-168998500D01*
X324453750Y-172898500D02*
X322453750Y-172898500D01*
X324453750Y-172898500D02*
X324453750Y-168998500D01*
X208153750Y-172898500D02*
X208153750Y-168998500D01*
X210153750Y-172898500D02*
X208153750Y-172898500D01*
X210153750Y-172898500D02*
X210153750Y-168998500D01*
X303403750Y-172898500D02*
X303403750Y-168998500D01*
X305403750Y-172898500D02*
X303403750Y-172898500D01*
X305403750Y-172898500D02*
X305403750Y-168998500D01*
X284353750Y-172898500D02*
X284353750Y-168998500D01*
X286353750Y-172898500D02*
X284353750Y-172898500D01*
X286353750Y-172898500D02*
X286353750Y-168998500D01*
X265303750Y-172898500D02*
X265303750Y-168998500D01*
X267303750Y-172898500D02*
X265303750Y-172898500D01*
X267303750Y-172898500D02*
X267303750Y-168998500D01*
X227203750Y-172898500D02*
X227203750Y-168998500D01*
X229203750Y-172898500D02*
X227203750Y-172898500D01*
X229203750Y-172898500D02*
X229203750Y-168998500D01*
X246253750Y-172898500D02*
X246253750Y-168998500D01*
X248253750Y-172898500D02*
X246253750Y-172898500D01*
X248253750Y-172898500D02*
X248253750Y-168998500D01*
X400765000Y-176653000D02*
X400765000Y-172753000D01*
X402765000Y-176653000D02*
X400765000Y-176653000D01*
X402765000Y-176653000D02*
X402765000Y-172753000D01*
X360506000Y-172898500D02*
X360506000Y-168998500D01*
X362506000Y-172898500D02*
X360506000Y-172898500D01*
X362506000Y-172898500D02*
X362506000Y-168998500D01*
X196168000Y-211062000D02*
X196168000Y-207162000D01*
X198168000Y-211062000D02*
X196168000Y-211062000D01*
X198168000Y-211062000D02*
X198168000Y-207162000D01*
X381459500Y-161455250D02*
X381459500Y-163455250D01*
X390859500Y-161455250D02*
X390859500Y-163455250D01*
X408128580Y-230471500D02*
X407847420Y-230471500D01*
X408128580Y-231491500D02*
X407847420Y-231491500D01*
X403536750Y-193692750D02*
X407676750Y-193692750D01*
X403536750Y-193992750D02*
X403536750Y-193692750D01*
X403536750Y-196832750D02*
X403536750Y-196532750D01*
X407676750Y-193692750D02*
X407676750Y-193992750D01*
X407676750Y-196532750D02*
X407676750Y-196832750D01*
X407676750Y-196832750D02*
X403536750Y-196832750D01*
X396365500Y-218159670D02*
X396365500Y-218440830D01*
X397385500Y-218159670D02*
X397385500Y-218440830D01*
X392384250Y-164962992D02*
X392384250Y-165437508D01*
X393429250Y-164962992D02*
X393429250Y-165437508D01*
X384693809Y-181986744D02*
X385545256Y-182838191D01*
X385980744Y-180699809D02*
X386832191Y-181551256D01*
X370271553Y-175760250D02*
X370271553Y-179640250D01*
X374741553Y-174590250D02*
X372241553Y-174590250D01*
X374741553Y-175640250D02*
X374741553Y-174590250D01*
X374741553Y-179760250D02*
X374741553Y-180810250D01*
X374741553Y-180810250D02*
X372241553Y-180810250D01*
X375731553Y-179760250D02*
X374741553Y-179760250D01*
X378890500Y-164962992D02*
X378890500Y-165437508D01*
X379935500Y-164962992D02*
X379935500Y-165437508D01*
X400191080Y-199515250D02*
X399909920Y-199515250D01*
X400191080Y-200535250D02*
X399909920Y-200535250D01*
X395147420Y-230471500D02*
X395428580Y-230471500D01*
X395147420Y-231491500D02*
X395428580Y-231491500D01*
X408128580Y-228884000D02*
X407847420Y-228884000D01*
X408128580Y-229904000D02*
X407847420Y-229904000D01*
X189100500Y-169006500D02*
X189100500Y-173016500D01*
X189100500Y-173016500D02*
X191100500Y-173016500D01*
X191100500Y-169006500D02*
X191100500Y-173016500D01*
X405844008Y-199502750D02*
X405369492Y-199502750D01*
X405844008Y-200547750D02*
X405369492Y-200547750D01*
X381046507Y-171321180D02*
X381944533Y-172219206D01*
X384150706Y-170013033D02*
X383231467Y-169093794D01*
X380749522Y-171420175D02*
X380410111Y-171080764D01*
X380813162Y-171017124D01*
X380749522Y-171420175D01*
G36*
X380749522Y-171420175D02*
G01*
X380410111Y-171080764D01*
X380813162Y-171017124D01*
X380749522Y-171420175D01*
G37*
D17*
G36*
X179053272Y-228565250D02*
G01*
X178910789Y-228707750D01*
X178717039Y-228707750D01*
X178523289Y-228707750D01*
X178665772Y-228565250D01*
X178808256Y-228422750D01*
X179002006Y-228422750D01*
X179195756Y-228422750D01*
X179053272Y-228565250D01*
G37*
G36*
X179543272Y-228707750D02*
G01*
X179258281Y-228992750D01*
X179066402Y-228992750D01*
X179060848Y-228992749D01*
X179030604Y-228992717D01*
X179001921Y-228992640D01*
X178975182Y-228992523D01*
X178950769Y-228992369D01*
X178929063Y-228992182D01*
X178910447Y-228991965D01*
X178895303Y-228991723D01*
X178884013Y-228991459D01*
X178876959Y-228991176D01*
X178874522Y-228990879D01*
X178875376Y-228989880D01*
X178879475Y-228985577D01*
X178886795Y-228978062D01*
X178897147Y-228967523D01*
X178910345Y-228954147D01*
X178926201Y-228938124D01*
X178944528Y-228919643D01*
X178965139Y-228898890D01*
X178987848Y-228876056D01*
X179012465Y-228851328D01*
X179038805Y-228824894D01*
X179066680Y-228796944D01*
X179095903Y-228767666D01*
X179126286Y-228737248D01*
X179157643Y-228705879D01*
X179440764Y-228422750D01*
X179634514Y-228422750D01*
X179828264Y-228422750D01*
X179543272Y-228707750D01*
G37*
G36*
X180697645Y-227727122D02*
G01*
X181187023Y-228216495D01*
X181187023Y-228707745D01*
X181187022Y-229198995D01*
X180697650Y-229688372D01*
X180208277Y-230177750D01*
X179594522Y-230177750D01*
X178980768Y-230177750D01*
X178490772Y-229687750D01*
X178000777Y-229197750D01*
X178980780Y-229197750D01*
X179960782Y-229197750D01*
X180205772Y-228952750D01*
X180450763Y-228707750D01*
X180205772Y-228462750D01*
X179960782Y-228217749D01*
X179231402Y-228217750D01*
X179180516Y-228217746D01*
X179121556Y-228217732D01*
X179064070Y-228217708D01*
X179008252Y-228217675D01*
X178954299Y-228217633D01*
X178902407Y-228217582D01*
X178852771Y-228217523D01*
X178805588Y-228217456D01*
X178761054Y-228217382D01*
X178719364Y-228217301D01*
X178680714Y-228217213D01*
X178645301Y-228217119D01*
X178613321Y-228217020D01*
X178584968Y-228216915D01*
X178560440Y-228216805D01*
X178539932Y-228216691D01*
X178523641Y-228216573D01*
X178511761Y-228216451D01*
X178504490Y-228216326D01*
X178502022Y-228216199D01*
X178503757Y-228212747D01*
X178508685Y-228206273D01*
X178516382Y-228197209D01*
X178526428Y-228185990D01*
X178538401Y-228173047D01*
X178551879Y-228158816D01*
X178566441Y-228143729D01*
X178581664Y-228128218D01*
X178597126Y-228112719D01*
X178612407Y-228097663D01*
X178627083Y-228083485D01*
X178640734Y-228070617D01*
X178652938Y-228059493D01*
X178663272Y-228050546D01*
X178702458Y-228019068D01*
X178765137Y-227973415D01*
X178829660Y-227932096D01*
X178896327Y-227894958D01*
X178965435Y-227861853D01*
X179037284Y-227832629D01*
X179112174Y-227807136D01*
X179190403Y-227785223D01*
X179197809Y-227783319D01*
X179209304Y-227780201D01*
X179218247Y-227777559D01*
X179223870Y-227775626D01*
X179225403Y-227774634D01*
X179223360Y-227773872D01*
X179217452Y-227772219D01*
X179209522Y-227770306D01*
X179202188Y-227768590D01*
X179183532Y-227763866D01*
X179162092Y-227758055D01*
X179139190Y-227751541D01*
X179116151Y-227744703D01*
X179094300Y-227737922D01*
X179074959Y-227731580D01*
X179064864Y-227728104D01*
X178991142Y-227699887D01*
X178919713Y-227667505D01*
X178850898Y-227631129D01*
X178785020Y-227590927D01*
X178722401Y-227547066D01*
X178720155Y-227545382D01*
X178710489Y-227538120D01*
X178702495Y-227532090D01*
X178696950Y-227527881D01*
X178694631Y-227526078D01*
X178694939Y-227525610D01*
X178698074Y-227522146D01*
X178704366Y-227515542D01*
X178713556Y-227506063D01*
X178725382Y-227493972D01*
X178739584Y-227479534D01*
X178755902Y-227463014D01*
X178774075Y-227444677D01*
X178793843Y-227424785D01*
X178814946Y-227403605D01*
X178837123Y-227381399D01*
X178980756Y-227237750D01*
X179594512Y-227237750D01*
X180208268Y-227237750D01*
X180697645Y-227727122D01*
G37*
G36*
X178110905Y-226984026D02*
G01*
X178122367Y-227028447D01*
X178144276Y-227098345D01*
X178170299Y-227165501D01*
X178200507Y-227230073D01*
X178234970Y-227292220D01*
X178273758Y-227352101D01*
X178296200Y-227383040D01*
X178340493Y-227437717D01*
X178388394Y-227489250D01*
X178439625Y-227537449D01*
X178493911Y-227582120D01*
X178550975Y-227623072D01*
X178610539Y-227660112D01*
X178672328Y-227693048D01*
X178736064Y-227721687D01*
X178801471Y-227745837D01*
X178868272Y-227765306D01*
X178871088Y-227766023D01*
X178882909Y-227769131D01*
X178892750Y-227771870D01*
X178899651Y-227773967D01*
X178902654Y-227775148D01*
X178902091Y-227775900D01*
X178897768Y-227777672D01*
X178890145Y-227779993D01*
X178880154Y-227782556D01*
X178857582Y-227788290D01*
X178813057Y-227801516D01*
X178767313Y-227817419D01*
X178721876Y-227835453D01*
X178678272Y-227855068D01*
X178631803Y-227878812D01*
X178570484Y-227914904D01*
X178511967Y-227954962D01*
X178456433Y-227998782D01*
X178404064Y-228046161D01*
X178355041Y-228096892D01*
X178309545Y-228150772D01*
X178267758Y-228207596D01*
X178229861Y-228267161D01*
X178196035Y-228329261D01*
X178166463Y-228393692D01*
X178141325Y-228460250D01*
X178138008Y-228470182D01*
X178134193Y-228482053D01*
X178130490Y-228494213D01*
X178126635Y-228507574D01*
X178122366Y-228523051D01*
X178117422Y-228541555D01*
X178111540Y-228564000D01*
X178111054Y-228565846D01*
X178110070Y-228568907D01*
X178109107Y-228569758D01*
X178107917Y-228567872D01*
X178106250Y-228562720D01*
X178103860Y-228553775D01*
X178100498Y-228540508D01*
X178099212Y-228535528D01*
X178094814Y-228519565D01*
X178089517Y-228501447D01*
X178083873Y-228483044D01*
X178078440Y-228466224D01*
X178059895Y-228415126D01*
X178031574Y-228349624D01*
X177999084Y-228286621D01*
X177962603Y-228226279D01*
X177922307Y-228168764D01*
X177878372Y-228114240D01*
X177830974Y-228062871D01*
X177780289Y-228014822D01*
X177726494Y-227970256D01*
X177669765Y-227929339D01*
X177610277Y-227892234D01*
X177548208Y-227859107D01*
X177483734Y-227830120D01*
X177417030Y-227805440D01*
X177348272Y-227785229D01*
X177340333Y-227783137D01*
X177329116Y-227779974D01*
X177320595Y-227777302D01*
X177315491Y-227775352D01*
X177314522Y-227774356D01*
X177314714Y-227774295D01*
X177318930Y-227773125D01*
X177326827Y-227771049D01*
X177337345Y-227768342D01*
X177349429Y-227765278D01*
X177376834Y-227757917D01*
X177438964Y-227737885D01*
X177500710Y-227713460D01*
X177561295Y-227685024D01*
X177619936Y-227652960D01*
X177675855Y-227617650D01*
X177728272Y-227579478D01*
X177752547Y-227559728D01*
X177782516Y-227533548D01*
X177812491Y-227505567D01*
X177841379Y-227476844D01*
X177868087Y-227448437D01*
X177891520Y-227421405D01*
X177910665Y-227397497D01*
X177953257Y-227338671D01*
X177991599Y-227277264D01*
X178025605Y-227213439D01*
X178055195Y-227147359D01*
X178080286Y-227079185D01*
X178100795Y-227009081D01*
X178102255Y-227003420D01*
X178105253Y-226992258D01*
X178107409Y-226985252D01*
X178108932Y-226981886D01*
X178110028Y-226981649D01*
X178110905Y-226984026D01*
G37*
D16*
X395147420Y-228884000D02*
X395428580Y-228884000D01*
X395147420Y-229904000D02*
X395428580Y-229904000D01*
X408128580Y-219359000D02*
X407847420Y-219359000D01*
X408128580Y-220379000D02*
X407847420Y-220379000D01*
X398028000Y-221021500D02*
X398028000Y-221471500D01*
X398028000Y-228241500D02*
X398028000Y-227791500D01*
X398478000Y-221021500D02*
X398028000Y-221021500D01*
X398478000Y-228241500D02*
X398028000Y-228241500D01*
X404798000Y-221021500D02*
X405248000Y-221021500D01*
X404798000Y-228241500D02*
X405248000Y-228241500D01*
X405248000Y-221021500D02*
X405248000Y-221471500D01*
X405248000Y-228241500D02*
X405248000Y-227791500D01*
X405268000Y-229171500D02*
X404798000Y-228831500D01*
X405268000Y-228491500D01*
X405268000Y-229171500D01*
G36*
X405268000Y-229171500D02*
G01*
X404798000Y-228831500D01*
X405268000Y-228491500D01*
X405268000Y-229171500D01*
G37*
X408109830Y-217771500D02*
X407828670Y-217771500D01*
X408109830Y-218791500D02*
X407828670Y-218791500D01*
X398440500Y-194562750D02*
X398440500Y-195362750D01*
X398440500Y-196162750D02*
X398440500Y-195362750D01*
X401660500Y-196162750D02*
X401660500Y-194362750D01*
X398490500Y-194062750D02*
X398160500Y-194302750D01*
X398160500Y-193822750D01*
X398490500Y-194062750D01*
G36*
X398490500Y-194062750D02*
G01*
X398160500Y-194302750D01*
X398160500Y-193822750D01*
X398490500Y-194062750D01*
G37*
X368845500Y-175360250D02*
X368845500Y-175860250D01*
X368845500Y-175860250D02*
X369345500Y-176160250D01*
X368845500Y-179540250D02*
X368845500Y-180040250D01*
X369345500Y-176160250D02*
X369345500Y-179240250D01*
X369345500Y-179240250D02*
X368845500Y-179540250D01*
X373565500Y-174290250D02*
X370235500Y-174290250D01*
X373565500Y-175340250D02*
X373565500Y-174290250D01*
X373565500Y-180060250D02*
X373565500Y-181110250D01*
X373565500Y-181110250D02*
X370235500Y-181110250D01*
X373775500Y-180060250D02*
X373565500Y-180060250D01*
X374275500Y-179500250D02*
X374629053Y-179750250D01*
X374629053Y-179250250D02*
X374275500Y-179500250D01*
X374629053Y-179750250D02*
X374629053Y-179250250D01*
M02*
