M48
; DRILL file {KiCad 8.0.8} date 2025-03-09T16:53:58+0100
; FORMAT={-:-/ absolute / inch / decimal}
; #@! TF.CreationDate,2025-03-09T16:53:58+01:00
; #@! TF.GenerationSoftware,Kicad,Pcbnew,8.0.8
; #@! TF.FileFunction,Plated,1,2,PTH
FMAT,2
INCH
; #@! TA.AperFunction,Plated,PTH,ViaDrill
T1C0.0118
; #@! TA.AperFunction,Plated,PTH,ViaDrill
T2C0.0157
; #@! TA.AperFunction,Plated,PTH,ComponentDrill
T3C0.0236
; #@! TA.AperFunction,Plated,PTH,ComponentDrill
T4C0.0394
; #@! TA.AperFunction,Plated,PTH,ComponentDrill
T5C0.0579
; #@! TA.AperFunction,Plated,PTH,ComponentDrill
T6C0.0591
; #@! TA.AperFunction,Plated,PTH,ComponentDrill
T7C0.0866
; #@! TA.AperFunction,Plated,PTH,ComponentDrill
T8C0.1200
%
G90
G05
T1
X15.4688Y-9.0313
X15.4688Y-9.0938
X15.625Y-8.5007
X15.6563Y-8.6875
X15.6563Y-9.0
X15.8125Y-8.8438
X15.9688Y-8.6875
X15.9688Y-9.0
X16.1563Y-8.6563
X16.1563Y-9.0313
X16.1563Y-9.0938
T2
X9.875Y-8.3804
X11.375Y-8.4158
X12.875Y-8.4513
X13.625Y-8.469
X14.625Y-7.0
X14.8438Y-6.9375
X14.9001Y-6.9688
X14.9267Y-7.0733
X14.9375Y-6.4102
X14.9447Y-6.7837
X14.9578Y-7.0237
X14.9633Y-6.7346
X15.1875Y-7.1563
X15.25Y-6.4414
X15.3125Y-6.5977
X15.3125Y-6.7813
X15.3894Y-7.5361
X15.4688Y-6.4102
X15.5479Y-7.536
X15.6215Y-8.2861
X15.75Y-7.5644
X15.8438Y-7.875
X15.875Y-7.875
X16.0938Y-7.0313
X16.1555Y-8.5938
X16.2976Y-8.193
X16.298Y-8.2406
T4
X15.9955Y-6.3824
X15.9955Y-6.9533
X16.0939Y-6.9533
X16.1924Y-6.3824
X16.1924Y-6.9533
T5
X7.0375Y-6.5563
X7.1313Y-7.3063
X7.2875Y-6.4563
X7.3188Y-8.0563
X7.3813Y-7.2063
X7.5688Y-7.9563
X7.7875Y-6.5563
X7.975Y-7.3063
X7.975Y-8.8063
X8.0375Y-6.4563
X8.225Y-7.2063
X8.225Y-8.7063
X8.35Y-8.0563
X8.35Y-8.8063
X8.5375Y-6.5563
X8.6Y-7.9563
X8.6Y-8.7063
X8.725Y-7.3063
X8.725Y-8.8063
X8.7875Y-6.4563
X8.975Y-7.2063
X8.975Y-8.7063
X9.1Y-8.0563
X9.2875Y-6.5563
X9.35Y-7.9563
X9.475Y-7.3063
X9.5375Y-6.4563
X9.725Y-7.2063
X9.85Y-8.0563
X10.0375Y-6.5563
X10.1Y-7.9563
X10.225Y-7.3063
X10.225Y-8.8063
X10.2875Y-6.4563
X10.475Y-7.2063
X10.475Y-8.7063
X10.6Y-8.0563
X10.7875Y-6.5563
X10.85Y-7.9563
X10.975Y-7.3063
X11.0375Y-6.4563
X11.225Y-7.2063
X11.35Y-8.0563
X11.35Y-8.8063
X11.5375Y-6.5563
X11.6Y-7.9563
X11.6Y-8.7063
X11.725Y-7.3063
X11.7875Y-6.4563
X11.975Y-7.2063
X12.1Y-8.0563
X12.1Y-8.8063
X12.2875Y-6.5563
X12.35Y-7.9563
X12.35Y-8.7063
X12.475Y-7.3063
X12.475Y-8.8063
X12.5375Y-6.4563
X12.725Y-7.2063
X12.725Y-8.7063
X12.85Y-8.0563
X13.0375Y-6.5563
X13.1Y-7.9563
X13.225Y-7.3063
X13.2875Y-6.4563
X13.475Y-7.2063
X13.6Y-8.0563
X13.7875Y-6.5563
X13.85Y-7.9563
X13.9746Y-7.3062
X13.975Y-8.8063
X14.0375Y-6.4563
X14.2246Y-7.2062
X14.225Y-8.7063
X14.35Y-8.0563
X14.35Y-8.8063
X14.5375Y-6.5563
X14.6Y-7.9563
X14.6Y-8.7063
X14.725Y-7.3063
X14.725Y-8.8063
X14.7875Y-6.4563
X14.975Y-7.2063
X14.975Y-8.7063
X15.1Y-8.0563
X15.3375Y-6.8563
X15.35Y-7.9563
X15.5875Y-6.7563
X15.6625Y-7.3063
X15.85Y-8.0563
X15.9125Y-7.2063
X16.1Y-7.9563
T7
X7.9828Y-8.4003
X8.0458Y-7.0312
X9.8312Y-8.8511
X11.0458Y-7.0313
X12.2525Y-7.7813
X13.9909Y-8.8623
X15.1029Y-6.9475
T8
X8.0313Y-9.1813
X8.9688Y-9.1813
X9.625Y-9.1813
X9.625Y-9.1813
X9.625Y-9.1813
X11.125Y-9.1813
X11.875Y-9.1813
X13.375Y-9.1813
X13.375Y-9.1813
X14.0313Y-9.1813
X14.875Y-9.1813
X14.9688Y-9.1813
T3
G00X15.0331Y-6.3073
M15
G01X15.0331Y-6.3309
M16
G05
G00X15.0331Y-6.462
M15
G01X15.0331Y-6.5053
M16
G05
G00X15.3732Y-6.3073
M15
G01X15.3732Y-6.3309
M16
G05
G00X15.3732Y-6.462
M15
G01X15.3732Y-6.5053
M16
G05
T6
G00X15.8735Y-6.6836
M15
G01X15.8735Y-6.6324
M16
G05
G00X16.3144Y-6.6836
M15
G01X16.3144Y-6.6324
M16
G05
M30
