G04 #@! TF.GenerationSoftware,KiCad,Pcbnew,8.0.8*
G04 #@! TF.CreationDate,2025-05-03T21:43:53+02:00*
G04 #@! TF.ProjectId,PowerVan JST revision,506f7765-7256-4616-9e20-4a5354207265,rev?*
G04 #@! TF.SameCoordinates,Original*
G04 #@! TF.FileFunction,Paste,Bot*
G04 #@! TF.FilePolarity,Positive*
%FSLAX46Y46*%
G04 Gerber Fmt 4.6, Leading zero omitted, Abs format (unit mm)*
G04 Created by KiCad (PCBNEW 8.0.8) date 2025-05-03 21:43:53*
%MOMM*%
%LPD*%
G01*
G04 APERTURE LIST*
G04 Aperture macros list*
%AMRoundRect*
0 Rectangle with rounded corners*
0 $1 Rounding radius*
0 $2 $3 $4 $5 $6 $7 $8 $9 X,Y pos of 4 corners*
0 Add a 4 corners polygon primitive as box body*
4,1,4,$2,$3,$4,$5,$6,$7,$8,$9,$2,$3,0*
0 Add four circle primitives for the rounded corners*
1,1,$1+$1,$2,$3*
1,1,$1+$1,$4,$5*
1,1,$1+$1,$6,$7*
1,1,$1+$1,$8,$9*
0 Add four rect primitives between the rounded corners*
20,1,$1+$1,$2,$3,$4,$5,0*
20,1,$1+$1,$4,$5,$6,$7,0*
20,1,$1+$1,$6,$7,$8,$9,0*
20,1,$1+$1,$8,$9,$2,$3,0*%
G04 Aperture macros list end*
%ADD10R,1.200000X0.900000*%
%ADD11R,0.600000X1.450000*%
%ADD12R,0.300000X1.450000*%
%ADD13RoundRect,0.225000X-0.225000X-0.250000X0.225000X-0.250000X0.225000X0.250000X-0.225000X0.250000X0*%
%ADD14RoundRect,0.200000X-0.200000X-0.800000X0.200000X-0.800000X0.200000X0.800000X-0.200000X0.800000X0*%
%ADD15RoundRect,0.225000X0.250000X-0.225000X0.250000X0.225000X-0.250000X0.225000X-0.250000X-0.225000X0*%
%ADD16RoundRect,0.200000X0.275000X-0.200000X0.275000X0.200000X-0.275000X0.200000X-0.275000X-0.200000X0*%
%ADD17RoundRect,0.250001X-0.114905X0.768977X-0.768977X0.114905X0.114905X-0.768977X0.768977X-0.114905X0*%
%ADD18RoundRect,0.150000X0.625000X-0.150000X0.625000X0.150000X-0.625000X0.150000X-0.625000X-0.150000X0*%
%ADD19RoundRect,0.250000X0.650000X-0.350000X0.650000X0.350000X-0.650000X0.350000X-0.650000X-0.350000X0*%
%ADD20RoundRect,0.225000X0.225000X0.250000X-0.225000X0.250000X-0.225000X-0.250000X0.225000X-0.250000X0*%
%ADD21RoundRect,0.225000X0.375000X-0.225000X0.375000X0.225000X-0.375000X0.225000X-0.375000X-0.225000X0*%
%ADD22RoundRect,0.200000X-0.200000X-0.275000X0.200000X-0.275000X0.200000X0.275000X-0.200000X0.275000X0*%
%ADD23RoundRect,0.250000X-0.601041X0.247487X0.247487X-0.601041X0.601041X-0.247487X-0.247487X0.601041X0*%
%ADD24RoundRect,0.150000X-0.601041X0.388909X0.388909X-0.601041X0.601041X-0.388909X-0.388909X0.601041X0*%
%ADD25RoundRect,0.075000X0.075000X-0.662500X0.075000X0.662500X-0.075000X0.662500X-0.075000X-0.662500X0*%
%ADD26RoundRect,0.075000X0.662500X-0.075000X0.662500X0.075000X-0.662500X0.075000X-0.662500X-0.075000X0*%
%ADD27RoundRect,0.162500X-0.162500X0.617500X-0.162500X-0.617500X0.162500X-0.617500X0.162500X0.617500X0*%
%ADD28RoundRect,0.150000X0.275000X-0.150000X0.275000X0.150000X-0.275000X0.150000X-0.275000X-0.150000X0*%
%ADD29RoundRect,0.175000X0.225000X-0.175000X0.225000X0.175000X-0.225000X0.175000X-0.225000X-0.175000X0*%
G04 APERTURE END LIST*
D10*
X413957000Y-210470000D03*
X413957000Y-207170000D03*
X328613000Y-229512000D03*
X328613000Y-226212000D03*
X394859500Y-210462000D03*
X394859500Y-207162000D03*
X271034500Y-229512000D03*
X271034500Y-226212000D03*
X197644250Y-229456500D03*
X197644250Y-226156500D03*
X233950500Y-229512000D03*
X233950500Y-226212000D03*
X350838000Y-229456500D03*
X350838000Y-226156500D03*
X385334500Y-229512000D03*
X385334500Y-226212000D03*
X271034500Y-191412000D03*
X271034500Y-188112000D03*
X409258000Y-191412000D03*
X409258000Y-188112000D03*
X261509500Y-210462000D03*
X261509500Y-207162000D03*
X375809500Y-210462000D03*
X375809500Y-207162000D03*
X356759500Y-210462000D03*
X356759500Y-207162000D03*
X280559500Y-210462000D03*
X280559500Y-207162000D03*
X337709500Y-210462000D03*
X337709500Y-207162000D03*
X192469000Y-191412000D03*
X192469000Y-188112000D03*
X318659500Y-210462000D03*
X318659500Y-207162000D03*
X242459500Y-210462000D03*
X242459500Y-207162000D03*
X366284500Y-191412000D03*
X366284500Y-188112000D03*
X232934500Y-191412000D03*
X232934500Y-188112000D03*
X213884500Y-191412000D03*
X213884500Y-188112000D03*
X347234500Y-191412000D03*
X347234500Y-188112000D03*
X290084500Y-191412000D03*
X290084500Y-188112000D03*
X309134500Y-191412000D03*
X309134500Y-188112000D03*
X299609500Y-210462000D03*
X299609500Y-207162000D03*
X223409500Y-210462000D03*
X223409500Y-207162000D03*
X385334500Y-191412000D03*
X385334500Y-188112000D03*
X328184500Y-191412000D03*
X328184500Y-188112000D03*
X251984500Y-191412000D03*
X251984500Y-188112000D03*
X342503750Y-172298500D03*
X342503750Y-168998500D03*
X399352000Y-172753000D03*
X399352000Y-176053000D03*
X365770000Y-172306500D03*
X365770000Y-169006500D03*
X323453750Y-172298500D03*
X323453750Y-168998500D03*
X209153750Y-172298500D03*
X209153750Y-168998500D03*
X304403750Y-172298500D03*
X304403750Y-168998500D03*
X285353750Y-172298500D03*
X285353750Y-168998500D03*
X266303750Y-172298500D03*
X266303750Y-168998500D03*
X228203750Y-172298500D03*
X228203750Y-168998500D03*
X247253750Y-172298500D03*
X247253750Y-168998500D03*
X401765000Y-176053000D03*
X401765000Y-172753000D03*
X363538000Y-172298500D03*
X363538000Y-168998500D03*
X197168000Y-210462000D03*
X197168000Y-207162000D03*
D11*
X382909500Y-165600250D03*
X383709500Y-165600250D03*
D12*
X384909500Y-165600250D03*
X385909500Y-165600250D03*
X386409500Y-165600250D03*
X387409500Y-165600250D03*
D11*
X388609500Y-165600250D03*
X389409500Y-165600250D03*
X389409500Y-165600250D03*
X388609500Y-165600250D03*
D12*
X387909500Y-165600250D03*
X386909500Y-165600250D03*
X385409500Y-165600250D03*
X384409500Y-165600250D03*
D11*
X383709500Y-165600250D03*
X382909500Y-165600250D03*
D13*
X407213000Y-230981500D03*
X408763000Y-230981500D03*
D14*
X403506750Y-195262750D03*
X407706750Y-195262750D03*
D15*
X396875500Y-219075250D03*
X396875500Y-217525250D03*
D16*
X392906750Y-166025250D03*
X392906750Y-164375250D03*
D17*
X387608571Y-171192179D03*
X385504929Y-173295821D03*
D18*
X361462803Y-175331500D03*
X361462803Y-174331500D03*
X361462803Y-173331500D03*
X361462803Y-172331500D03*
D19*
X357587803Y-176631500D03*
X357587803Y-171031500D03*
D16*
X379413000Y-166025250D03*
X379413000Y-164375250D03*
D13*
X399275500Y-200025250D03*
X400825500Y-200025250D03*
D20*
X396063000Y-230981500D03*
X394513000Y-230981500D03*
D13*
X407213000Y-229394000D03*
X408763000Y-229394000D03*
D21*
X190100500Y-172306500D03*
X190100500Y-169006500D03*
D22*
X404781750Y-200025250D03*
X406431750Y-200025250D03*
D23*
X380997010Y-170126170D03*
D24*
X382199091Y-168924088D03*
X384320412Y-171045409D03*
X382976909Y-172388912D03*
D20*
X396063000Y-229394000D03*
X394513000Y-229394000D03*
D13*
X407213000Y-219869000D03*
X408763000Y-219869000D03*
D25*
X404388000Y-228794000D03*
X403888000Y-228794000D03*
X403388000Y-228794000D03*
X402888000Y-228794000D03*
X402388000Y-228794000D03*
X401888000Y-228794000D03*
X401388000Y-228794000D03*
X400888000Y-228794000D03*
X400388000Y-228794000D03*
X399888000Y-228794000D03*
X399388000Y-228794000D03*
X398888000Y-228794000D03*
D26*
X397475500Y-227381500D03*
X397475500Y-226881500D03*
X397475500Y-226381500D03*
X397475500Y-225881500D03*
X397475500Y-225381500D03*
X397475500Y-224881500D03*
X397475500Y-224381500D03*
X397475500Y-223881500D03*
X397475500Y-223381500D03*
X397475500Y-222881500D03*
X397475500Y-222381500D03*
X397475500Y-221881500D03*
D25*
X398888000Y-220469000D03*
X399388000Y-220469000D03*
X399888000Y-220469000D03*
X400388000Y-220469000D03*
X400888000Y-220469000D03*
X401388000Y-220469000D03*
X401888000Y-220469000D03*
X402388000Y-220469000D03*
X402888000Y-220469000D03*
X403388000Y-220469000D03*
X403888000Y-220469000D03*
X404388000Y-220469000D03*
D26*
X405800500Y-221881500D03*
X405800500Y-222381500D03*
X405800500Y-222881500D03*
X405800500Y-223381500D03*
X405800500Y-223881500D03*
X405800500Y-224381500D03*
X405800500Y-224881500D03*
X405800500Y-225381500D03*
X405800500Y-225881500D03*
X405800500Y-226381500D03*
X405800500Y-226881500D03*
X405800500Y-227381500D03*
D13*
X407194250Y-218281500D03*
X408744250Y-218281500D03*
D27*
X399100500Y-193912750D03*
X400050500Y-193912750D03*
X401000500Y-193912750D03*
X401000500Y-196612750D03*
X399100500Y-196612750D03*
D28*
X359856750Y-175631500D03*
X359856750Y-174431500D03*
X359856750Y-173231500D03*
X359856750Y-172031500D03*
D29*
X356081750Y-176781500D03*
X356081750Y-170881500D03*
M02*
