%TF.GenerationSoftware,KiCad,Pcbnew,8.0.8*%
%TF.CreationDate,2025-05-03T21:44:13+02:00*%
%TF.ProjectId,PowerVan JST revision,506f7765-7256-4616-9e20-4a5354207265,rev?*%
%TF.SameCoordinates,Original*%
%TF.FileFunction,Soldermask,Bot*%
%TF.FilePolarity,Negative*%
%FSLAX46Y46*%
G04 Gerber Fmt 4.6, Leading zero omitted, Abs format (unit mm)*
G04 Created by KiCad (PCBNEW 8.0.8) date 2025-05-03 21:44:13*
%MOMM*%
%LPD*%
G01*
G04 APERTURE LIST*
G04 Aperture macros list*
%AMRoundRect*
0 Rectangle with rounded corners*
0 $1 Rounding radius*
0 $2 $3 $4 $5 $6 $7 $8 $9 X,Y pos of 4 corners*
0 Add a 4 corners polygon primitive as box body*
4,1,4,$2,$3,$4,$5,$6,$7,$8,$9,$2,$3,0*
0 Add four circle primitives for the rounded corners*
1,1,$1+$1,$2,$3*
1,1,$1+$1,$4,$5*
1,1,$1+$1,$6,$7*
1,1,$1+$1,$8,$9*
0 Add four rect primitives between the rounded corners*
20,1,$1+$1,$2,$3,$4,$5,0*
20,1,$1+$1,$4,$5,$6,$7,0*
20,1,$1+$1,$6,$7,$8,$9,0*
20,1,$1+$1,$8,$9,$2,$3,0*%
G04 Aperture macros list end*
%ADD10C,1.750000*%
%ADD11C,3.987800*%
%ADD12C,2.250000*%
%ADD13R,2.000000X2.000000*%
%ADD14C,2.000000*%
%ADD15R,2.000000X3.200000*%
%ADD16C,4.400000*%
%ADD17C,4.000000*%
%ADD18C,3.048000*%
%ADD19R,1.200000X0.900000*%
%ADD20C,0.650000*%
%ADD21R,0.600000X1.450000*%
%ADD22R,0.300000X1.450000*%
%ADD23O,1.000000X1.600000*%
%ADD24O,1.000000X2.100000*%
%ADD25RoundRect,0.225000X-0.225000X-0.250000X0.225000X-0.250000X0.225000X0.250000X-0.225000X0.250000X0*%
%ADD26RoundRect,0.200000X-0.200000X-0.800000X0.200000X-0.800000X0.200000X0.800000X-0.200000X0.800000X0*%
%ADD27RoundRect,0.225000X0.250000X-0.225000X0.250000X0.225000X-0.250000X0.225000X-0.250000X-0.225000X0*%
%ADD28RoundRect,0.200000X0.275000X-0.200000X0.275000X0.200000X-0.275000X0.200000X-0.275000X-0.200000X0*%
%ADD29RoundRect,0.250001X-0.114905X0.768977X-0.768977X0.114905X0.114905X-0.768977X0.768977X-0.114905X0*%
%ADD30RoundRect,0.150000X0.625000X-0.150000X0.625000X0.150000X-0.625000X0.150000X-0.625000X-0.150000X0*%
%ADD31RoundRect,0.250000X0.650000X-0.350000X0.650000X0.350000X-0.650000X0.350000X-0.650000X-0.350000X0*%
%ADD32RoundRect,0.225000X0.225000X0.250000X-0.225000X0.250000X-0.225000X-0.250000X0.225000X-0.250000X0*%
%ADD33RoundRect,0.225000X0.375000X-0.225000X0.375000X0.225000X-0.375000X0.225000X-0.375000X-0.225000X0*%
%ADD34RoundRect,0.200000X-0.200000X-0.275000X0.200000X-0.275000X0.200000X0.275000X-0.200000X0.275000X0*%
%ADD35RoundRect,0.250000X-0.601041X0.247487X0.247487X-0.601041X0.601041X-0.247487X-0.247487X0.601041X0*%
%ADD36RoundRect,0.150000X-0.601041X0.388909X0.388909X-0.601041X0.601041X-0.388909X-0.388909X0.601041X0*%
%ADD37RoundRect,0.075000X0.075000X-0.662500X0.075000X0.662500X-0.075000X0.662500X-0.075000X-0.662500X0*%
%ADD38RoundRect,0.075000X0.662500X-0.075000X0.662500X0.075000X-0.662500X0.075000X-0.662500X-0.075000X0*%
%ADD39RoundRect,0.162500X-0.162500X0.617500X-0.162500X-0.617500X0.162500X-0.617500X0.162500X0.617500X0*%
%ADD40RoundRect,0.150000X0.275000X-0.150000X0.275000X0.150000X-0.275000X0.150000X-0.275000X-0.150000X0*%
%ADD41RoundRect,0.175000X0.225000X-0.175000X0.225000X0.175000X-0.225000X0.175000X-0.225000X-0.175000X0*%
G04 APERTURE END LIST*
D10*
%TO.C,K_44*%
X372745500Y-226219000D03*
D11*
X377825500Y-226219000D03*
D10*
X382905500Y-226219000D03*
D12*
X374015500Y-223679000D03*
X380365500Y-221139000D03*
%TD*%
D10*
%TO.C,K_41*%
X306070500Y-226219000D03*
D11*
X311150500Y-226219000D03*
D10*
X316230500Y-226219000D03*
D12*
X307340500Y-223679000D03*
X313690500Y-221139000D03*
%TD*%
D10*
%TO.C,K_27*%
X210820500Y-207169000D03*
D11*
X215900500Y-207169000D03*
D10*
X220980500Y-207169000D03*
D12*
X212090500Y-204629000D03*
X218440500Y-202089000D03*
%TD*%
D10*
%TO.C,K_37*%
X401320500Y-207169000D03*
D11*
X406400500Y-207169000D03*
D10*
X411480500Y-207169000D03*
D12*
X402590500Y-204629000D03*
X408940500Y-202089000D03*
%TD*%
D10*
%TO.C,K_32*%
X306070500Y-207169000D03*
D11*
X311150500Y-207169000D03*
D10*
X316230500Y-207169000D03*
D12*
X307340500Y-204629000D03*
X313690500Y-202089000D03*
%TD*%
D10*
%TO.C,K_29*%
X248920500Y-207169000D03*
D11*
X254000500Y-207169000D03*
D10*
X259080500Y-207169000D03*
D12*
X250190500Y-204629000D03*
X256540500Y-202089000D03*
%TD*%
D10*
%TO.C,K_36*%
X382270500Y-207169000D03*
D11*
X387350500Y-207169000D03*
D10*
X392430500Y-207169000D03*
D12*
X383540500Y-204629000D03*
X389890500Y-202089000D03*
%TD*%
D10*
%TO.C,K_34*%
X344170500Y-207169000D03*
D11*
X349250500Y-207169000D03*
D10*
X354330500Y-207169000D03*
D12*
X345440500Y-204629000D03*
X351790500Y-202089000D03*
%TD*%
D10*
%TO.C,K_28*%
X229870500Y-207169000D03*
D11*
X234950500Y-207169000D03*
D10*
X240030500Y-207169000D03*
D12*
X231140500Y-204629000D03*
X237490500Y-202089000D03*
%TD*%
D10*
%TO.C,K_40*%
X258445500Y-226219000D03*
D11*
X263525500Y-226219000D03*
D10*
X268605500Y-226219000D03*
D12*
X259715500Y-223679000D03*
X266065500Y-221139000D03*
%TD*%
D10*
%TO.C,K_35*%
X363220500Y-207169000D03*
D11*
X368300500Y-207169000D03*
D10*
X373380500Y-207169000D03*
D12*
X364490500Y-204629000D03*
X370840500Y-202089000D03*
%TD*%
D13*
%TO.C,SW_1*%
X406286200Y-176612800D03*
D14*
X411286200Y-176612800D03*
X408786200Y-176612800D03*
D15*
X403186200Y-169112800D03*
X414386200Y-169112800D03*
D14*
X411286200Y-162112800D03*
X406286200Y-162112800D03*
%TD*%
D10*
%TO.C,K_43*%
X363220500Y-226219000D03*
D11*
X368300500Y-226219000D03*
D10*
X373380500Y-226219000D03*
D12*
X364490500Y-223679000D03*
X370840500Y-221139000D03*
%TD*%
D10*
%TO.C,K_42*%
X353695500Y-226219000D03*
D11*
X358775500Y-226219000D03*
D10*
X363855500Y-226219000D03*
D12*
X354965500Y-223679000D03*
X361315500Y-221139000D03*
%TD*%
D10*
%TO.C,K_39*%
X201295500Y-226219000D03*
D11*
X206375500Y-226219000D03*
D10*
X211455500Y-226219000D03*
D12*
X202565500Y-223679000D03*
X208915500Y-221139000D03*
%TD*%
D10*
%TO.C,K_38*%
X220345500Y-226219000D03*
D11*
X225425500Y-226219000D03*
D10*
X230505500Y-226219000D03*
D12*
X221615500Y-223679000D03*
X227965500Y-221139000D03*
%TD*%
D10*
%TO.C,K_33*%
X325120500Y-207169000D03*
D11*
X330200500Y-207169000D03*
D10*
X335280500Y-207169000D03*
D12*
X326390500Y-204629000D03*
X332740500Y-202089000D03*
%TD*%
D10*
%TO.C,K_30*%
X267970500Y-207169000D03*
D11*
X273050500Y-207169000D03*
D10*
X278130500Y-207169000D03*
D12*
X269240500Y-204629000D03*
X275590500Y-202089000D03*
%TD*%
D10*
%TO.C,K_1*%
X177483000Y-169069000D03*
D11*
X182563000Y-169069000D03*
D10*
X187643000Y-169069000D03*
D12*
X178753000Y-166529000D03*
X185103000Y-163989000D03*
%TD*%
D10*
%TO.C,K_24*%
X372745500Y-188119000D03*
D11*
X377825500Y-188119000D03*
D10*
X382905500Y-188119000D03*
D12*
X374015500Y-185579000D03*
X380365500Y-183039000D03*
%TD*%
D10*
%TO.C,K_16*%
X220345500Y-188119000D03*
D11*
X225425500Y-188119000D03*
D10*
X230505500Y-188119000D03*
D12*
X221615500Y-185579000D03*
X227965500Y-183039000D03*
%TD*%
D10*
%TO.C,K_15*%
X201295500Y-188119000D03*
D11*
X206375500Y-188119000D03*
D10*
X211455500Y-188119000D03*
D12*
X202565500Y-185579000D03*
X208915500Y-183039000D03*
%TD*%
D10*
%TO.C,K_14*%
X179864250Y-188119000D03*
D11*
X184944250Y-188119000D03*
D10*
X190024250Y-188119000D03*
D12*
X181134250Y-185579000D03*
X187484250Y-183039000D03*
%TD*%
D10*
%TO.C,K_10*%
X348933000Y-169069000D03*
D11*
X354013000Y-169069000D03*
D10*
X359093000Y-169069000D03*
D12*
X350203000Y-166529000D03*
X356553000Y-163989000D03*
%TD*%
D10*
%TO.C,K_8*%
X310833000Y-169069000D03*
D11*
X315913000Y-169069000D03*
D10*
X320993000Y-169069000D03*
D12*
X312103000Y-166529000D03*
X318453000Y-163989000D03*
%TD*%
D10*
%TO.C,K_4*%
X234633000Y-169069000D03*
D11*
X239713000Y-169069000D03*
D10*
X244793000Y-169069000D03*
D12*
X235903000Y-166529000D03*
X242253000Y-163989000D03*
%TD*%
D10*
%TO.C,K_6*%
X272733000Y-169069000D03*
D11*
X277813000Y-169069000D03*
D10*
X282893000Y-169069000D03*
D12*
X274003000Y-166529000D03*
X280353000Y-163989000D03*
%TD*%
D10*
%TO.C,K_12*%
X397193000Y-169069000D03*
D11*
X392113000Y-169069000D03*
D10*
X387033000Y-169069000D03*
D12*
X395923000Y-171609000D03*
X389573000Y-174149000D03*
%TD*%
D10*
%TO.C,K_11*%
X367983000Y-169069000D03*
D11*
X373063000Y-169069000D03*
D10*
X378143000Y-169069000D03*
D12*
X369253000Y-166529000D03*
X375603000Y-163989000D03*
%TD*%
D10*
%TO.C,K_3*%
X215583000Y-169069000D03*
D11*
X220663000Y-169069000D03*
D10*
X225743000Y-169069000D03*
D12*
X216853000Y-166529000D03*
X223203000Y-163989000D03*
%TD*%
D10*
%TO.C,K_18*%
X258445500Y-188119000D03*
D11*
X263525500Y-188119000D03*
D10*
X268605500Y-188119000D03*
D12*
X259715500Y-185579000D03*
X266065500Y-183039000D03*
%TD*%
D10*
%TO.C,K_9*%
X329883000Y-169069000D03*
D11*
X334963000Y-169069000D03*
D10*
X340043000Y-169069000D03*
D12*
X331153000Y-166529000D03*
X337503000Y-163989000D03*
%TD*%
D10*
%TO.C,K_25*%
X396558000Y-188119000D03*
D11*
X401638000Y-188119000D03*
D10*
X406718000Y-188119000D03*
D12*
X397828000Y-185579000D03*
X404178000Y-183039000D03*
%TD*%
D10*
%TO.C,K_21*%
X315595500Y-188119000D03*
D11*
X320675500Y-188119000D03*
D10*
X325755500Y-188119000D03*
D12*
X316865500Y-185579000D03*
X323215500Y-183039000D03*
%TD*%
D10*
%TO.C,K_19*%
X277495500Y-188119000D03*
D11*
X282575500Y-188119000D03*
D10*
X287655500Y-188119000D03*
D12*
X278765500Y-185579000D03*
X285115500Y-183039000D03*
%TD*%
D10*
%TO.C,K_2*%
X196533000Y-169069000D03*
D11*
X201613000Y-169069000D03*
D10*
X206693000Y-169069000D03*
D12*
X197803000Y-166529000D03*
X204153000Y-163989000D03*
%TD*%
D10*
%TO.C,K_7*%
X291783000Y-169069000D03*
D11*
X296863000Y-169069000D03*
D10*
X301943000Y-169069000D03*
D12*
X293053000Y-166529000D03*
X299403000Y-163989000D03*
%TD*%
D10*
%TO.C,K_17*%
X239395500Y-188119000D03*
D11*
X244475500Y-188119000D03*
D10*
X249555500Y-188119000D03*
D12*
X240665500Y-185579000D03*
X247015500Y-183039000D03*
%TD*%
D10*
%TO.C,K_22*%
X334645500Y-188119000D03*
D11*
X339725500Y-188119000D03*
D10*
X344805500Y-188119000D03*
D12*
X335915500Y-185579000D03*
X342265500Y-183039000D03*
%TD*%
D10*
%TO.C,K_20*%
X296545500Y-188119000D03*
D11*
X301625500Y-188119000D03*
D10*
X306705500Y-188119000D03*
D12*
X297815500Y-185579000D03*
X304165500Y-183039000D03*
%TD*%
D10*
%TO.C,K_5*%
X253683000Y-169069000D03*
D11*
X258763000Y-169069000D03*
D10*
X263843000Y-169069000D03*
D12*
X254953000Y-166529000D03*
X261303000Y-163989000D03*
%TD*%
D10*
%TO.C,K_26*%
X184626750Y-207169000D03*
D11*
X189706750Y-207169000D03*
D10*
X194786750Y-207169000D03*
D12*
X185896750Y-204629000D03*
X192246750Y-202089000D03*
%TD*%
D16*
%TO.C,H2*%
X202762500Y-213367750D03*
%TD*%
%TO.C,H3*%
X249712500Y-224817750D03*
%TD*%
%TO.C,H4*%
X280562500Y-178594000D03*
%TD*%
%TO.C,H5*%
X311212500Y-197644000D03*
%TD*%
%TO.C,H6*%
X383612500Y-176467750D03*
%TD*%
%TO.C,H1*%
X204362500Y-178593750D03*
%TD*%
D10*
%TO.C,K_23*%
X353684400Y-188117800D03*
D11*
X358764400Y-188117800D03*
D10*
X363844400Y-188117800D03*
D12*
X354954400Y-185577800D03*
X361304400Y-183037800D03*
%TD*%
D10*
%TO.C,K_31*%
X287020500Y-207169000D03*
D11*
X292100500Y-207169000D03*
D10*
X297180500Y-207169000D03*
D12*
X288290500Y-204629000D03*
X294640500Y-202089000D03*
%TD*%
D16*
%TO.C,H6*%
X355369250Y-225103000D03*
%TD*%
D17*
%TO.C,S1*%
X227806750Y-233204000D03*
D11*
X227806750Y-217964000D03*
D17*
X203994250Y-233204000D03*
D11*
X203994250Y-217964000D03*
%TD*%
D17*
%TO.C,S5*%
X282575500Y-233204000D03*
D11*
X282575500Y-217964000D03*
D17*
X244475500Y-233204000D03*
D11*
X244475500Y-217964000D03*
%TD*%
D17*
%TO.C,S4*%
X339725500Y-233204000D03*
D11*
X339725500Y-217964000D03*
D17*
X301625500Y-233204000D03*
D11*
X301625500Y-217964000D03*
%TD*%
D17*
%TO.C,S2*%
X377825500Y-233204000D03*
D11*
X377825500Y-217964000D03*
D17*
X244475500Y-233204000D03*
D11*
X244475500Y-217964000D03*
%TD*%
D10*
%TO.C,K_46*%
X210820500Y-226219000D03*
D11*
X215900500Y-226219000D03*
D10*
X220980500Y-226219000D03*
D12*
X212090500Y-223679000D03*
X218440500Y-221139000D03*
%TD*%
D17*
%TO.C,S6*%
X339725500Y-233204000D03*
D11*
X339725500Y-217964000D03*
D17*
X244475500Y-233204000D03*
D11*
X244475500Y-217964000D03*
%TD*%
D17*
%TO.C,S3*%
X380206750Y-233204000D03*
D11*
X380206750Y-217964000D03*
D17*
X356394250Y-233204000D03*
D11*
X356394250Y-217964000D03*
%TD*%
D10*
%TO.C,K_13*%
X315595500Y-226219000D03*
D11*
X320675500Y-226219000D03*
D10*
X325755500Y-226219000D03*
D12*
X316865500Y-223679000D03*
X323215500Y-221139000D03*
%TD*%
D10*
%TO.C,K_45*%
X287020500Y-226219000D03*
D11*
X292100500Y-226219000D03*
D10*
X297180500Y-226219000D03*
D12*
X288290500Y-223679000D03*
X294640500Y-221139000D03*
%TD*%
D18*
%TO.C,S7*%
X358775500Y-233204000D03*
D11*
X358775500Y-217964000D03*
D18*
X349250500Y-233204000D03*
D11*
X349250500Y-217964000D03*
D18*
X234950500Y-233204000D03*
D11*
X234950500Y-217964000D03*
D18*
X225425500Y-233204000D03*
D11*
X225425500Y-217964000D03*
%TD*%
D19*
%TO.C,D_37*%
X413957000Y-210470000D03*
X413957000Y-207170000D03*
%TD*%
%TO.C,D_41*%
X328613000Y-229512000D03*
X328613000Y-226212000D03*
%TD*%
%TO.C,D_36*%
X394859500Y-210462000D03*
X394859500Y-207162000D03*
%TD*%
%TO.C,D_40*%
X271034500Y-229512000D03*
X271034500Y-226212000D03*
%TD*%
%TO.C,D_39*%
X197644250Y-229456500D03*
X197644250Y-226156500D03*
%TD*%
%TO.C,D_38*%
X233950500Y-229512000D03*
X233950500Y-226212000D03*
%TD*%
%TO.C,D_42*%
X350838000Y-229456500D03*
X350838000Y-226156500D03*
%TD*%
%TO.C,D_44*%
X385334500Y-229512000D03*
X385334500Y-226212000D03*
%TD*%
%TO.C,D_18*%
X271034500Y-191412000D03*
X271034500Y-188112000D03*
%TD*%
%TO.C,D_25*%
X409258000Y-191412000D03*
X409258000Y-188112000D03*
%TD*%
%TO.C,D_29*%
X261509500Y-210462000D03*
X261509500Y-207162000D03*
%TD*%
%TO.C,D_35*%
X375809500Y-210462000D03*
X375809500Y-207162000D03*
%TD*%
%TO.C,D_34*%
X356759500Y-210462000D03*
X356759500Y-207162000D03*
%TD*%
%TO.C,D_30*%
X280559500Y-210462000D03*
X280559500Y-207162000D03*
%TD*%
%TO.C,D_33*%
X337709500Y-210462000D03*
X337709500Y-207162000D03*
%TD*%
%TO.C,D_14*%
X192469000Y-191412000D03*
X192469000Y-188112000D03*
%TD*%
%TO.C,D_32*%
X318659500Y-210462000D03*
X318659500Y-207162000D03*
%TD*%
%TO.C,D_28*%
X242459500Y-210462000D03*
X242459500Y-207162000D03*
%TD*%
%TO.C,D_23*%
X366284500Y-191412000D03*
X366284500Y-188112000D03*
%TD*%
%TO.C,D_16*%
X232934500Y-191412000D03*
X232934500Y-188112000D03*
%TD*%
%TO.C,D_15*%
X213884500Y-191412000D03*
X213884500Y-188112000D03*
%TD*%
%TO.C,D_22*%
X347234500Y-191412000D03*
X347234500Y-188112000D03*
%TD*%
%TO.C,D_19*%
X290084500Y-191412000D03*
X290084500Y-188112000D03*
%TD*%
%TO.C,D_20*%
X309134500Y-191412000D03*
X309134500Y-188112000D03*
%TD*%
%TO.C,D_31*%
X299609500Y-210462000D03*
X299609500Y-207162000D03*
%TD*%
%TO.C,D_27*%
X223409500Y-210462000D03*
X223409500Y-207162000D03*
%TD*%
%TO.C,D_24*%
X385334500Y-191412000D03*
X385334500Y-188112000D03*
%TD*%
%TO.C,D_21*%
X328184500Y-191412000D03*
X328184500Y-188112000D03*
%TD*%
%TO.C,D_17*%
X251984500Y-191412000D03*
X251984500Y-188112000D03*
%TD*%
%TO.C,D_9*%
X342503750Y-172298500D03*
X342503750Y-168998500D03*
%TD*%
%TO.C,D_12*%
X399352000Y-172753000D03*
X399352000Y-176053000D03*
%TD*%
%TO.C,D_11*%
X365770000Y-172306500D03*
X365770000Y-169006500D03*
%TD*%
%TO.C,D_8*%
X323453750Y-172298500D03*
X323453750Y-168998500D03*
%TD*%
%TO.C,D_2*%
X209153750Y-172298500D03*
X209153750Y-168998500D03*
%TD*%
%TO.C,D_7*%
X304403750Y-172298500D03*
X304403750Y-168998500D03*
%TD*%
%TO.C,D_6*%
X285353750Y-172298500D03*
X285353750Y-168998500D03*
%TD*%
%TO.C,D_5*%
X266303750Y-172298500D03*
X266303750Y-168998500D03*
%TD*%
%TO.C,D_3*%
X228203750Y-172298500D03*
X228203750Y-168998500D03*
%TD*%
%TO.C,D_4*%
X247253750Y-172298500D03*
X247253750Y-168998500D03*
%TD*%
%TO.C,D_13*%
X401765000Y-176053000D03*
X401765000Y-172753000D03*
%TD*%
%TO.C,D_10*%
X363538000Y-172298500D03*
X363538000Y-168998500D03*
%TD*%
%TO.C,D_26*%
X197168000Y-210462000D03*
X197168000Y-207162000D03*
%TD*%
D20*
%TO.C,J2*%
X383269500Y-164155250D03*
X389049500Y-164155250D03*
D21*
X382909500Y-165600250D03*
X383709500Y-165600250D03*
D22*
X384909500Y-165600250D03*
X385909500Y-165600250D03*
X386409500Y-165600250D03*
X387409500Y-165600250D03*
D21*
X388609500Y-165600250D03*
X389409500Y-165600250D03*
X389409500Y-165600250D03*
X388609500Y-165600250D03*
D22*
X387909500Y-165600250D03*
X386909500Y-165600250D03*
X385409500Y-165600250D03*
X384409500Y-165600250D03*
D21*
X383709500Y-165600250D03*
X382909500Y-165600250D03*
D23*
X381839500Y-160505250D03*
D24*
X381839500Y-164685250D03*
D23*
X390479500Y-160505250D03*
D24*
X390479500Y-164685250D03*
%TD*%
D25*
%TO.C,C14*%
X407213000Y-230981500D03*
X408763000Y-230981500D03*
%TD*%
D26*
%TO.C,SW2*%
X403506750Y-195262750D03*
X407706750Y-195262750D03*
%TD*%
D27*
%TO.C,C12*%
X396875500Y-219075250D03*
X396875500Y-217525250D03*
%TD*%
D28*
%TO.C,R8*%
X392906750Y-166025250D03*
X392906750Y-164375250D03*
%TD*%
D29*
%TO.C,F2*%
X387608571Y-171192179D03*
X385504929Y-173295821D03*
%TD*%
D30*
%TO.C,J3*%
X361462803Y-175331500D03*
X361462803Y-174331500D03*
X361462803Y-173331500D03*
X361462803Y-172331500D03*
D31*
X357587803Y-176631500D03*
X357587803Y-171031500D03*
%TD*%
D28*
%TO.C,R7*%
X379413000Y-166025250D03*
X379413000Y-164375250D03*
%TD*%
D25*
%TO.C,C10*%
X399275500Y-200025250D03*
X400825500Y-200025250D03*
%TD*%
D32*
%TO.C,C17*%
X396063000Y-230981500D03*
X394513000Y-230981500D03*
%TD*%
D25*
%TO.C,C13*%
X407213000Y-229394000D03*
X408763000Y-229394000D03*
%TD*%
D33*
%TO.C,D_1*%
X190100500Y-172306500D03*
X190100500Y-169006500D03*
%TD*%
D34*
%TO.C,R9*%
X404781750Y-200025250D03*
X406431750Y-200025250D03*
%TD*%
D35*
%TO.C,U6*%
X380997010Y-170126170D03*
D36*
X382199091Y-168924088D03*
X384320412Y-171045409D03*
X382976909Y-172388912D03*
%TD*%
D32*
%TO.C,C15*%
X396063000Y-229394000D03*
X394513000Y-229394000D03*
%TD*%
D25*
%TO.C,C11*%
X407213000Y-219869000D03*
X408763000Y-219869000D03*
%TD*%
D37*
%TO.C,U4*%
X404388000Y-228794000D03*
X403888000Y-228794000D03*
X403388000Y-228794000D03*
X402888000Y-228794000D03*
X402388000Y-228794000D03*
X401888000Y-228794000D03*
X401388000Y-228794000D03*
X400888000Y-228794000D03*
X400388000Y-228794000D03*
X399888000Y-228794000D03*
X399388000Y-228794000D03*
X398888000Y-228794000D03*
D38*
X397475500Y-227381500D03*
X397475500Y-226881500D03*
X397475500Y-226381500D03*
X397475500Y-225881500D03*
X397475500Y-225381500D03*
X397475500Y-224881500D03*
X397475500Y-224381500D03*
X397475500Y-223881500D03*
X397475500Y-223381500D03*
X397475500Y-222881500D03*
X397475500Y-222381500D03*
X397475500Y-221881500D03*
D37*
X398888000Y-220469000D03*
X399388000Y-220469000D03*
X399888000Y-220469000D03*
X400388000Y-220469000D03*
X400888000Y-220469000D03*
X401388000Y-220469000D03*
X401888000Y-220469000D03*
X402388000Y-220469000D03*
X402888000Y-220469000D03*
X403388000Y-220469000D03*
X403888000Y-220469000D03*
X404388000Y-220469000D03*
D38*
X405800500Y-221881500D03*
X405800500Y-222381500D03*
X405800500Y-222881500D03*
X405800500Y-223381500D03*
X405800500Y-223881500D03*
X405800500Y-224381500D03*
X405800500Y-224881500D03*
X405800500Y-225381500D03*
X405800500Y-225881500D03*
X405800500Y-226381500D03*
X405800500Y-226881500D03*
X405800500Y-227381500D03*
%TD*%
D25*
%TO.C,C16*%
X407194250Y-218281500D03*
X408744250Y-218281500D03*
%TD*%
D39*
%TO.C,U5*%
X399100500Y-193912750D03*
X400050500Y-193912750D03*
X401000500Y-193912750D03*
X401000500Y-196612750D03*
X399100500Y-196612750D03*
%TD*%
D40*
%TO.C,J4*%
X359856750Y-175631500D03*
X359856750Y-174431500D03*
X359856750Y-173231500D03*
X359856750Y-172031500D03*
D41*
X356081750Y-176781500D03*
X356081750Y-170881500D03*
%TD*%
M02*
