M48
; DRILL file {KiCad 8.0.8} date 2025-05-03T21:44:13+0200
; FORMAT={-:-/ absolute / inch / decimal}
; #@! TF.CreationDate,2025-05-03T21:44:13+02:00
; #@! TF.GenerationSoftware,Kicad,Pcbnew,8.0.8
; #@! TF.FileFunction,NonPlated,1,2,NPTH
FMAT,2
INCH
; #@! TA.AperFunction,NonPlated,NPTH,ComponentDrill
T1C0.0256
; #@! TA.AperFunction,NonPlated,NPTH,ComponentDrill
T2C0.0689
; #@! TA.AperFunction,NonPlated,NPTH,ComponentDrill
T3C0.1200
; #@! TA.AperFunction,NonPlated,NPTH,ComponentDrill
T4C0.1570
%
G90
G05
T1
X15.0894Y-6.4628
X15.3169Y-6.4628
T2
X6.9875Y-6.6563
X7.0813Y-7.4063
X7.2688Y-8.1563
X7.3875Y-6.6563
X7.4813Y-7.4063
X7.6688Y-8.1563
X7.7375Y-6.6563
X7.925Y-7.4063
X7.925Y-8.9063
X8.1375Y-6.6563
X8.3Y-8.1563
X8.3Y-8.9063
X8.325Y-7.4063
X8.325Y-8.9063
X8.4875Y-6.6563
X8.675Y-7.4063
X8.675Y-8.9063
X8.7Y-8.1563
X8.7Y-8.9063
X8.8875Y-6.6563
X9.05Y-8.1563
X9.075Y-7.4063
X9.075Y-8.9063
X9.2375Y-6.6563
X9.425Y-7.4063
X9.45Y-8.1563
X9.6375Y-6.6563
X9.8Y-8.1563
X9.825Y-7.4063
X9.9875Y-6.6563
X10.175Y-7.4063
X10.175Y-8.9063
X10.2Y-8.1563
X10.3875Y-6.6563
X10.55Y-8.1563
X10.575Y-7.4063
X10.575Y-8.9063
X10.7375Y-6.6563
X10.925Y-7.4063
X10.95Y-8.1563
X11.1375Y-6.6563
X11.3Y-8.1563
X11.3Y-8.9063
X11.325Y-7.4063
X11.4875Y-6.6563
X11.675Y-7.4063
X11.7Y-8.1563
X11.7Y-8.9063
X11.8875Y-6.6563
X12.05Y-8.1563
X12.05Y-8.9063
X12.075Y-7.4063
X12.2375Y-6.6563
X12.425Y-7.4063
X12.425Y-8.9063
X12.45Y-8.1563
X12.45Y-8.9063
X12.6375Y-6.6563
X12.8Y-8.1563
X12.825Y-7.4063
X12.825Y-8.9063
X12.9875Y-6.6563
X13.175Y-7.4063
X13.2Y-8.1563
X13.3875Y-6.6563
X13.55Y-8.1563
X13.575Y-7.4063
X13.7375Y-6.6563
X13.9246Y-7.4062
X13.925Y-8.9063
X13.95Y-8.1563
X14.1375Y-6.6563
X14.3Y-8.1563
X14.3Y-8.9063
X14.3246Y-7.4062
X14.325Y-8.9063
X14.4875Y-6.6563
X14.675Y-7.4063
X14.675Y-8.9063
X14.7Y-8.1563
X14.7Y-8.9063
X14.8875Y-6.6563
X15.05Y-8.1563
X15.075Y-7.4063
X15.075Y-8.9063
X15.2375Y-6.6563
X15.45Y-8.1563
X15.6125Y-7.4063
X15.6375Y-6.6563
X15.8Y-8.1563
X16.0125Y-7.4063
X16.2Y-8.1563
T3
X8.875Y-9.1813
X9.25Y-9.1813
X13.75Y-9.1813
X14.125Y-9.1813
T4
X7.1875Y-6.6563
X7.2813Y-7.4063
X7.4688Y-8.1563
X7.9375Y-6.6563
X8.0313Y-8.5813
X8.125Y-7.4063
X8.125Y-8.9063
X8.5Y-8.1563
X8.5Y-8.9063
X8.6875Y-6.6563
X8.875Y-7.4063
X8.875Y-8.5813
X8.875Y-8.9063
X8.9688Y-8.5813
X9.25Y-8.1563
X9.25Y-8.5813
X9.4375Y-6.6563
X9.625Y-7.4063
X9.625Y-8.5813
X9.625Y-8.5813
X9.625Y-8.5813
X10.0Y-8.1563
X10.1875Y-6.6563
X10.375Y-7.4063
X10.375Y-8.9063
X10.75Y-8.1563
X10.9375Y-6.6563
X11.125Y-7.4063
X11.125Y-8.5813
X11.5Y-8.1563
X11.5Y-8.9063
X11.6875Y-6.6563
X11.875Y-7.4063
X11.875Y-8.5813
X12.25Y-8.1563
X12.25Y-8.9063
X12.4375Y-6.6563
X12.625Y-7.4063
X12.625Y-8.9063
X13.0Y-8.1563
X13.1875Y-6.6563
X13.375Y-7.4063
X13.375Y-8.5813
X13.375Y-8.5813
X13.75Y-8.1563
X13.75Y-8.5813
X13.9375Y-6.6563
X14.0313Y-8.5813
X14.1246Y-7.4062
X14.125Y-8.5813
X14.125Y-8.9063
X14.5Y-8.1563
X14.5Y-8.9063
X14.6875Y-6.6563
X14.875Y-7.4063
X14.875Y-8.5813
X14.875Y-8.9063
X14.9688Y-8.5813
X15.25Y-8.1563
X15.4375Y-6.6563
X15.8125Y-7.4063
X16.0Y-8.1563
M30
